<?xml version="1.0" standalone="no"?>
<!DOCTYPE svg PUBLIC "-//W3C//DTD SVG 1.1//EN" "http://www.w3.org/Graphics/SVG/1.1/DTD/svg11.dtd" >
<!--
2013-9-30: Created.
-->
<svg>
<metadata>
Created by iconfont
</metadata>
<defs>

<font id="iconfont" horiz-adv-x="1024" >
  <font-face
    font-family="iconfont"
    font-weight="500"
    font-stretch="normal"
    units-per-em="1024"
    ascent="896"
    descent="-128"
  />
    <missing-glyph />
    
    <glyph glyph-name="x" unicode="x" horiz-adv-x="1001"
d="M281 543q-27 -1 -53 -1h-83q-18 0 -36.5 -6t-32.5 -18.5t-23 -32t-9 -45.5v-76h912v41q0 16 -0.5 30t-0.5 18q0 13 -5 29t-17 29.5t-31.5 22.5t-49.5 9h-133v-97h-438v97zM955 310v-52q0 -23 0.5 -52t0.5 -58t-10.5 -47.5t-26 -30t-33 -16t-31.5 -4.5q-14 -1 -29.5 -0.5
t-29.5 0.5h-32l-45 128h-439l-44 -128h-29h-34q-20 0 -45 1q-25 0 -41 9.5t-25.5 23t-13.5 29.5t-4 30v167h911zM163 247q-12 0 -21 -8.5t-9 -21.5t9 -21.5t21 -8.5q13 0 22 8.5t9 21.5t-9 21.5t-22 8.5zM316 123q-8 -26 -14 -48q-5 -19 -10.5 -37t-7.5 -25t-3 -15t1 -14.5
t9.5 -10.5t21.5 -4h37h67h81h80h64h36q23 0 34 12t2 38q-5 13 -9.5 30.5t-9.5 34.5q-5 19 -11 39h-368zM336 498v228q0 11 2.5 23t10 21.5t20.5 15.5t34 6h188q31 0 51.5 -14.5t20.5 -52.5v-227h-327z" />
    

    
    <glyph glyph-name="huoche" unicode="&#58880;" d="M468.5527 779.2975m-32.7035 0a31.937 31.937 0 1 0 65.407 0 31.937 31.937 0 1 0-65.407 0ZM555.7617 779.2975m-32.7035 0a31.937 31.937 0 1 0 65.407 0 31.937 31.937 0 1 0-65.407 0ZM706.8733 22.5871c57.7075 17.9323 99.6116 71.7486 99.6116 135.3533v436.03968c0 78.2643-63.4481 141.7134-141.7134 141.7134H359.54278400000004c-78.2653 0-141.7134-63.4481-141.7134-141.7134v-436.03968c0-63.6047 41.9031-117.4211 99.6116-135.3533L174.2264-212.6943h98.10944l98.1094 163.5154h283.425792l98.1094-163.5154h98.10944L706.8733 22.5871zM664.7716 81.633c-30.1025 0-54.5055 24.4029-54.5055 54.5055 0 30.1025 24.4029 54.5055 54.5055 54.5055 30.1015 0 54.5055-24.4029 54.5055-54.5055C719.276 106.036 694.8731 81.633 664.7716 81.633zM424.9487 692.0886c0 12.0412 9.7608 21.802 21.802 21.802h130.811904c12.0412 0 21.802-9.7608 21.802-21.802v-43.603968c0-12.0412-9.7608-21.802-21.802-21.802H446.75072000000006c-12.0412 0-21.802 9.7608-21.802 21.802V692.088576zM294.1368 539.4747c0 36.1236 29.2823 65.406 65.406 65.406h305.227776c36.1236 0 65.406-29.2823 65.406-65.406v-87.207936c0-36.1236-29.2823-65.406-65.406-65.406H359.54278400000004c-36.1236 0-65.406 29.2823-65.406 65.406V539.474688zM359.5428 190.6429c30.1015 0 54.5055-24.4029 54.5055-54.5055 0-30.1015-24.4029-54.5055-54.5055-54.5055-30.1025 0-54.5055 24.4029-54.5055 54.5055C305.0383 166.24 329.4413 190.6429 359.5428 190.6429z"  horiz-adv-x="1024" />

    
    <glyph glyph-name="baiduzhuanhuan" unicode="&#58881;" d="M512 812C229.23264 812 0 582.76736 0 300c0-282.76736 229.23264-512 512-512 282.76736 0 512 229.23264 512 512C1024 582.76736 794.76736 812 512 812zM624.64 607.2c39.58784 0 71.68-45.85472 71.68-102.4s-32.09216-102.4-71.68-102.4S552.96 448.25472 552.96 504.8 585.05216 607.2 624.64 607.2zM440.32 627.68c39.58784 0 71.68-45.85472 71.68-102.4s-32.09216-102.4-71.68-102.4S368.64 468.73472 368.64 525.28 400.73216 627.68 440.32 627.68zM317.44 484.32c39.58784 0 71.68-45.85472 71.68-102.4 0-56.54528-32.09216-102.4-71.68-102.4S245.76 325.37472 245.76 381.92C245.76 438.46528 277.85216 484.32 317.44 484.32zM757.0432 61.34656C735.8464 30.8928 697.38496 13.28 652.1856 13.28l-259.8912 0c-45.19936 0-83.64032 17.6128-104.8576 48.06656-21.1968 30.4128-18.82112 64.59392 6.47168 93.14304l129.9456 146.6368C446.68928 326.86976 481.4848 340.96 522.24 340.96s75.55072-14.09024 98.38592-39.8336l129.9456-146.6368C775.8848 125.94048 778.24 91.75936 757.0432 61.34656zM747.52 238.56c-39.58784 0-71.68 45.85472-71.68 102.4 0 56.54528 32.09216 102.4 71.68 102.4s71.68-45.85472 71.68-102.4C819.2 284.41472 787.10784 238.56 747.52 238.56z"  horiz-adv-x="1024" />

    
    <glyph glyph-name="zhifeiji" unicode="&#58895;" d="M951.975936 704.146176c-2.75968 2.184192-6.536192 2.57024-9.614336 0.944128L74.161152 261.116672c-3.231744-1.659904-5.136384-5.085184-4.855808-8.702976 0.318464-3.615744 2.761728-6.690816 6.221824-7.794688l290.622464-92.377088c3.057664-0.959488 6.360064-0.242688 8.704 1.88928L776.901632 516.368128 455.88992 136.392448c-1.941504-2.28864-2.604032-5.41696-1.747968-8.29952 0.854016-2.884608 3.09248-5.157888 5.971968-6.030336l322.486272-98.23232c0.833536-0.263168 1.714176-0.384 2.5856-0.384 1.533952 0 3.072 0.402432 4.438016 1.17248 2.12992 1.220608 3.6864 3.265536 4.261888 5.661696L955.117568 695.008C955.943936 698.413824 954.715136 701.978368 951.975936 704.146176zM554.471424 51.514112l-89.129984 27.4176c-2.692096 0.874496-5.659648 0.349184-7.933952-1.343488-2.289664-1.698816-3.636224-4.370432-3.636224-7.201792l0-168.221696c0-3.986432 2.624512-7.48032 6.464512-8.597504 0.805888-0.228352 1.645568-0.350208 2.48832-0.350208 3.004416 0 5.885952 1.52064 7.549952 4.160512l89.119744 140.798976c1.504256 2.361344 1.819648 5.279744 0.841728 7.882752C559.273984 48.680704 557.140992 50.690816 554.471424 51.514112z"  horiz-adv-x="1024" />

    
    <glyph glyph-name="wiappbiaozhu" unicode="&#58908;" d="M512 687.668c-176.595 0-319.759-141.808-319.759-316.718 0-174.922 319.759-482.619 319.759-482.619s319.759 307.698 319.759 482.619c-0.001 174.914-143.166 316.718-319.759 316.718zM514.636 234.892c-71.476 0-129.433 57.399-129.433 128.19 0 70.81 57.956 128.207 129.433 128.207s129.421-57.399 129.421-128.207c0-70.79-57.946-128.19-129.421-128.19z"  horiz-adv-x="1024" />

    
    <glyph glyph-name="msnui-male" unicode="&#59040;" d="M779.6 180.102c-161.4 14.4-171 87.9-171 87.9v73.44c94.26 36.78 123.060 177.36 123.060 177.36 0 55.92-27.12 57.48-27.12 57.48v91.080c6.3 151.8-84.72 116.64-86.34 116.64-1.5 0-51.060 39.96-51.060 39.96-35.22 27.18-113.52-9.6-113.52-9.6s0.72 0 1.68 0c-1.68 0-3.3 0-4.92-0.060-88.62-2.34-111.78-67.020-111.78-67.020l1.62-167.76c-46.26 0-39.96-65.52-39.96-65.52 0-71.88 124.62-170.94 124.62-170.94 7.98-94.32-41.52-142.14-41.52-142.14s-84.66-3.18-180.54-31.98c-2.28-0.72-4.5-1.38-6.72-2.1-90.42-30.96-116.28-119.28-116.28-119.28v-86.28l391.38-1.62 46.32-84.72 43.14 86.34h383.46v67.14c1.62 98.94-164.52 151.68-164.52 151.68zM565.52-24.318h-91.080l-38.34 89.4 30.3 175.8h94.26l38.4-180.6-33.54-84.6z"  horiz-adv-x="1024" />

    
    <glyph glyph-name="kaixinwangyin" unicode="&#59364;" d="M660.416 252.896c-17.728 0-35.584-17.792-35.584-35.52 0-17.792 17.792-35.648 35.584-35.648 8.896 0 26.624 17.792 26.624 35.648C687.04 235.104 669.312 252.896 660.416 252.896zM349.44 306.272c0-26.688-17.792-302.272 248.832-97.728C349.44 66.272 349.44 306.272 349.44 306.272zM527.168 412.96c0 26.688-26.688 62.272-71.104 44.48C411.648 448.48 393.856 368.48 393.856 368.48 367.168 226.272 482.688 288.48 482.688 288.48s8.96-97.792 80-53.312c44.416 35.584 53.312 124.48 53.312 124.48C624.896 475.168 527.168 412.96 527.168 412.96zM500.48 377.376C491.648 359.584 473.792 341.792 464.96 341.792 447.168 350.688 447.168 368.48 456.064 395.168c8.896 17.728 17.728 35.52 35.584 35.52C500.48 421.792 509.376 404.064 500.48 377.376zM589.312 341.792C580.416 324 571.584 315.168 562.688 315.168 553.792 324 544.96 341.792 553.792 359.584s17.728 26.688 26.624 26.688C598.272 386.272 598.272 359.584 589.312 341.792zM313.856 359.584c-8.896 0-26.688-8.896-26.688-26.688s17.792-35.584 26.688-35.584c17.728 0 26.688 17.792 26.688 35.584S331.648 359.584 313.856 359.584zM512 812C229.248 812 0 582.752 0 300c0-282.752 229.248-512 512-512s512 229.248 512 512C1024 582.752 794.752 812 512 812zM846.976 244c0 0-69.376-71.104-151.04-88.896 0 0 0-106.752 0-168.96 0 0 26.688-106.624-133.248-26.624l-100.416 88.832-96.384-71.04c0 0-97.152-71.104-123.776 62.208 0 0 0.32 213.376 27.008 222.336-26.688 35.52-88.704 115.584-88.704 240 0 0-8.832 106.688 142.272 17.792 53.312-26.688 62.272-26.688 88.896 0 17.728 26.688 97.728 106.688 151.104 115.584 0 0 80 26.688 97.728-88.896l17.792-115.584c0 0-20.48-62.272 121.6-62.272C799.872 368.48 962.496 368.48 846.976 244z"  horiz-adv-x="1024" />

    
    <glyph glyph-name="56" unicode="&#58882;" d="M299.904441 442.835126c0.25071 0.113587 1.574868 0.602727 1.830695 0.709151 10.066263 4.15667 24.613584 3.209088 30.123065 1.75804 28.649504-7.54586 69.12024-62.718437 92.445482-159.019737 0.267083-1.102101-1.666966-0.580215-2.52245 0.213871-16.039301 14.882965-22.690792 26.040073-27.999704 30.108738-13.870916 10.631128-31.153534 14.45113-47.127344 23.38357-8.786107 4.912893-24.921599 16.244986-30.924313 23.166629-9.159614 10.56052-12.969383 27.042913-11.994172 36.017308 1.684362 15.487739 3.254114 25.717731-1.205455 30.40959 1.477654 2.294252 1.771343 3.251044 1.777483 5.16872C304.318984 438.288576 301.831326 441.254118 299.904441 442.835126zM248.971421 437.248897c-0.024559 0.004093-0.049119 0.00921-0.071631 0.014326-0.023536 0.005117-0.047072 0.011256-0.069585 0.016373-0.022513 0.00614-0.045025 0.01228-0.067538 0.01842-0.022513 0.00614-0.044002 0.013303-0.065492 0.019443s-0.041956 0.014326-0.062422 0.021489c-0.020466 0.007163-0.040932 0.014326-0.061398 0.022513-0.020466 0.007163-0.039909 0.01535-0.059352 0.023536-0.019443 0.008186-0.037862 0.016373-0.057305 0.024559-0.01842 0.008186-0.037862 0.017396-0.055259 0.025583-0.010233 0.005117-0.019443 0.010233-0.029676 0.014326-0.00921 0.005117-0.019443 0.010233-0.028653 0.014326-0.00921 0.005117-0.019443 0.010233-0.028653 0.01535-0.00921 0.005117-0.01842 0.010233-0.027629 0.016373-0.00921 0.005117-0.01842 0.011256-0.026606 0.016373-0.00921 0.005117-0.017396 0.011256-0.026606 0.016373-0.008186 0.00614-0.017396 0.01228-0.025583 0.017396-0.00921 0.005117-0.017396 0.011256-0.025583 0.017396-0.008186 0.00614-0.016373 0.01228-0.024559 0.017396-0.013303 0.00921-0.025583 0.019443-0.037862 0.028653-0.01228 0.010233-0.024559 0.019443-0.036839 0.029676-0.01228 0.010233-0.023536 0.020466-0.035816 0.030699-0.011256 0.010233-0.023536 0.021489-0.033769 0.031722-0.011256 0.010233-0.022513 0.021489-0.032746 0.031722-0.010233 0.011256-0.021489 0.021489-0.031722 0.032746-0.010233 0.011256-0.020466 0.022513-0.029676 0.033769-0.010233 0.011256-0.019443 0.022513-0.028653 0.034792-0.00921 0.011256-0.01842 0.023536-0.026606 0.034792-0.01535 0.021489-0.030699 0.042979-0.045025 0.065492-0.014326 0.022513-0.028653 0.044002-0.041956 0.067538-0.01228 0.022513-0.025583 0.046049-0.036839 0.068562-0.011256 0.023536-0.022513 0.047072-0.032746 0.070608-0.010233 0.023536-0.020466 0.048095-0.028653 0.072655-0.00921 0.024559-0.017396 0.049119-0.024559 0.074701-0.007163 0.024559-0.014326 0.050142-0.020466 0.075725-0.00614 0.025583-0.011256 0.051165-0.016373 0.076748-0.004093 0.025583-0.00921 0.051165-0.01228 0.076748-0.004093 0.029676-0.007163 0.059352-0.00921 0.089028-0.002047 0.029676-0.004093 0.060375-0.004093 0.090051-0.001023 0.030699-0.001023 0.060375 0 0.090051 0.001023 0.030699 0.002047 0.061398 0.004093 0.091074 0.002047 0.030699 0.005117 0.061398 0.008186 0.092098 0.00307 0.030699 0.008186 0.061398 0.01228 0.091074 0.005117 0.030699 0.010233 0.061398 0.016373 0.091074 0.00614 0.029676 0.013303 0.060375 0.020466 0.091074 0.007163 0.029676 0.01535 0.060375 0.024559 0.090051 0.019443 0.065492 0.041956 0.130983 0.066515 0.194428 0.024559 0.063445 0.053212 0.12689 0.083911 0.188288 0.030699 0.061398 0.063445 0.121773 0.098237 0.180102 0.035816 0.058328 0.073678 0.11461 0.112564 0.168846 0.039909 0.054235 0.081864 0.106424 0.124843 0.155543 0.044002 0.049119 0.089028 0.097214 0.1361 0.141216 0.047072 0.044002 0.096191 0.084934 0.146333 0.122797 0.050142 0.037862 0.101307 0.071631 0.153496 0.102331 0.052189 0.030699 0.106424 0.057305 0.160659 0.080841 0.007163 0.00307 0.013303 0.005117 0.020466 0.008186 0.007163 0.00307 0.013303 0.00614 0.020466 0.008186 0.007163 0.00307 0.014326 0.005117 0.020466 0.007163 0.007163 0.002047 0.014326 0.005117 0.020466 0.007163 0.007163 0.002047 0.013303 0.004093 0.020466 0.007163 0.007163 0.002047 0.014326 0.004093 0.020466 0.007163 0.007163 0.002047 0.014326 0.004093 0.021489 0.00614 0.007163 0.002047 0.014326 0.004093 0.021489 0.005117 0.007163 0.001023 0.014326 0.004093 0.020466 0.005117 0.098237 0.022513 0.200568 0.032746 0.301875 0.026606 0.024559-0.001023 0.050142-0.004093 0.074701-0.008186 0.957815 0 1.901303 0.001023 2.834558 0.001023 1.231037 0.001023 2.441609 0.004093 3.634784 0.00921 1.192152 0.004093 2.366907 0.011256 3.52836 0.020466 1.160429 0.00921 2.305509 0.020466 3.440355 0.035816 1.133823 0.014326 2.257413 0.033769 3.372817 0.056282 1.11438 0.022513 2.221598 0.049119 3.323699 0.080841 1.102101 0.031722 2.200108 0.068562 3.295046 0.109494 1.094938 0.041956 2.189875 0.089028 3.285836 0.14224 0.388856 0.019443 0.777713 0.038886 1.166569 0.059352 0.388856 0.020466 0.778736 0.041956 1.168616 0.064468 0.38988 0.022513 0.780783 0.045025 1.171686 0.069585 0.390903 0.024559 0.782829 0.049119 1.175779 0.075725 0.39295 0.025583 0.785899 0.053212 1.180895 0.080841 0.393973 0.027629 0.789992 0.056282 1.186012 0.085958 0.396019 0.029676 0.794086 0.060375 1.193175 0.092098 0.399089 0.031722 0.799202 0.065492 1.200338 0.098237 0.401136 0.033769 0.803295 0.068562 1.207501 0.104377 0.468674 0.041956 0.939395 0.084934 1.413186 0.128937 0.472767 0.045025 0.948605 0.091074 1.425466 0.138146 0.477884 0.048095 0.958838 0.097214 1.440815 0.148379 0.483001 0.051165 0.969071 0.103354 1.457188 0.157589 0.48914 0.054235 0.980327 0.110517 1.474584 0.167822 0.49528 0.057305 0.992607 0.11768 1.494027 0.178055 0.50142 0.061398 1.00591 0.12382 1.514493 0.188288 0.508583 0.064468 1.020236 0.130983 1.535983 0.199545s1.035586 0.138146 1.558495 0.210801c0.048095-0.035816 0.097214-0.073678 0.146333-0.113587 0.049119-0.039909 0.099261-0.081864 0.149403-0.124843 0.050142-0.042979 0.102331-0.089028 0.153496-0.1361 0.052189-0.047072 0.104377-0.096191 0.156566-0.146333 0.052189-0.050142 0.105401-0.102331 0.158612-0.156566 0.053212-0.053212 0.107447-0.10847 0.160659-0.165776 0.053212-0.056282 0.107447-0.115634 0.161682-0.173962 0.054235-0.059352 0.10847-0.12075 0.162706-0.182149 0.054235-0.062422 0.109494-0.125867 0.163729-0.190335 0.014326-0.017396 0.029676-0.034792 0.044002-0.053212 0.01535-0.01842 0.029676-0.035816 0.045025-0.053212 0.014326-0.01842 0.029676-0.035816 0.044002-0.054235 0.01535-0.01842 0.029676-0.036839 0.045025-0.055259 0.014326-0.01842 0.029676-0.036839 0.044002-0.055259 0.01535-0.01842 0.029676-0.037862 0.045025-0.056282 0.014326-0.01842 0.029676-0.037862 0.044002-0.056282 0.01535-0.01842 0.029676-0.037862 0.045025-0.057305 0.014326-0.019443 0.029676-0.037862 0.044002-0.057305 0.059352-0.076748 0.118704-0.155543 0.177032-0.23536 0.058328-0.079818 0.11768-0.159636 0.176009-0.2415 0.058328-0.081864 0.115634-0.163729 0.172939-0.246617 0.057305-0.082888 0.113587-0.167822 0.168846-0.251733 0.055259-0.084934 0.11154-0.169869 0.164752-0.255827 0.054235-0.085958 0.107447-0.172939 0.159636-0.25992 0.052189-0.086981 0.104377-0.173962 0.154519-0.261966 0.050142-0.088004 0.100284-0.176009 0.148379-0.264013 0.048095-0.088004 0.095167-0.177032 0.141216-0.265036 0.020466-0.039909 0.040932-0.080841 0.061398-0.12075 0.020466-0.039909 0.040932-0.080841 0.060375-0.12075 0.019443-0.039909 0.039909-0.080841 0.058328-0.12075 0.019443-0.039909 0.038886-0.080841 0.057305-0.12075 0.01842-0.039909 0.036839-0.080841 0.055259-0.12075 0.01842-0.039909 0.035816-0.079818 0.053212-0.12075 0.017396-0.039909 0.034792-0.079818 0.051165-0.119727 0.016373-0.039909 0.032746-0.079818 0.049119-0.119727 0.01535-0.039909 0.031722-0.078795 0.047072-0.118704 0.013303-0.034792 0.026606-0.069585 0.039909-0.104377 0.01228-0.034792 0.025583-0.069585 0.038886-0.103354 0.01228-0.034792 0.024559-0.069585 0.036839-0.103354 0.01228-0.034792 0.023536-0.068562 0.034792-0.102331 0.011256-0.033769 0.022513-0.068562 0.033769-0.102331 0.010233-0.033769 0.021489-0.067538 0.031722-0.101307 0.010233-0.032746 0.019443-0.066515 0.029676-0.100284 0.00921-0.033769 0.01842-0.067538 0.027629-0.100284 0.008186-0.032746 0.017396-0.066515 0.025583-0.099261 0.004093-0.017396 0.00921-0.035816 0.013303-0.054235 0.004093-0.01842 0.00921-0.035816 0.01228-0.053212 0.004093-0.017396 0.008186-0.035816 0.01228-0.053212 0.004093-0.01842 0.008186-0.035816 0.011256-0.053212 0.00307-0.01842 0.007163-0.035816 0.010233-0.053212 0.00307-0.017396 0.007163-0.034792 0.010233-0.052189 0.00307-0.017396 0.007163-0.034792 0.00921-0.052189 0.002047-0.013303 0.004093-0.026606 0.007163-0.039909 0.001023-0.005117 0.002047-0.010233 0.00307-0.01535 0.004093-0.022513 0.007163-0.046049 0.010233-0.066515 0.014326-0.097214 0.027629-0.193405 0.039909-0.288572 0.011256-0.095167 0.020466-0.190335 0.028653-0.284479 0.007163-0.094144 0.013303-0.188288 0.01842-0.281409 0.004093-0.093121 0.007163-0.185218 0.008186-0.276293 0.001023-0.091074 0.001023-0.182149-0.001023-0.272199-0.002047-0.090051-0.005117-0.180102-0.010233-0.268106-0.005117-0.088004-0.010233-0.177032-0.01842-0.264013-0.007163-0.086981-0.016373-0.172939-0.025583-0.258896-0.010233-0.085958-0.021489-0.169869-0.033769-0.254803-0.022513-0.152473-0.049119-0.302899-0.079818-0.450255-0.029676-0.148379-0.063445-0.292666-0.100284-0.434905-0.036839-0.14224-0.076748-0.282433-0.118704-0.419556-0.041956-0.137123-0.086981-0.271176-0.134053-0.403183-0.046049-0.130983-0.096191-0.25992-0.146333-0.385786-0.050142-0.125867-0.102331-0.248663-0.155543-0.36839-0.053212-0.119727-0.107447-0.237407-0.161682-0.350994-0.055259-0.113587-0.110517-0.225127-0.166799-0.333598-0.055259-0.107447-0.11154-0.212848-0.166799-0.314155-0.007163-0.01228-0.013303-0.024559-0.020466-0.036839-0.00614-0.01228-0.013303-0.024559-0.020466-0.035816-0.007163-0.011256-0.013303-0.023536-0.019443-0.035816-0.007163-0.011256-0.013303-0.023536-0.020466-0.035816-0.00614-0.01228-0.013303-0.023536-0.019443-0.034792-0.007163-0.011256-0.013303-0.023536-0.019443-0.034792-0.00614-0.011256-0.013303-0.023536-0.019443-0.034792-0.00614-0.011256-0.013303-0.022513-0.019443-0.034792-0.00614-0.010233-0.013303-0.022513-0.019443-0.033769-0.023536-0.040932-0.047072-0.081864-0.070608-0.122797-0.023536-0.039909-0.047072-0.079818-0.069585-0.118704-0.022513-0.037862-0.046049-0.076748-0.068562-0.11461-0.010233-0.016373-0.019443-0.032746-0.029676-0.049119-0.187265 0.076748-0.376577 0.153496-0.567935 0.229221-0.338714 0.13303-0.683569 0.264013-1.033539 0.390903-0.350994 0.12689-0.708128 0.251733-1.070378 0.373507-0.363274 0.12075-0.731664 0.240477-1.106194 0.356111-0.373507 0.115634-0.754177 0.228197-1.139963 0.338714-0.384763 0.109494-0.775666 0.216941-1.171686 0.322341-0.342808 0.091074-0.690732 0.180102-1.042749 0.267083-0.350994 0.086981-0.706081 0.172939-1.065262 0.255827-0.35918 0.083911-0.721431 0.165776-1.086751 0.245593-0.366344 0.079818-0.734734 0.158612-1.108241 0.234337-0.372483 0.076748-0.74906 0.151449-1.127683 0.224104-0.378623 0.072655-0.76134 0.144286-1.146103 0.213871-0.384763 0.069585-0.773619 0.138146-1.164522 0.203638-0.390903 0.066515-0.784876 0.130983-1.181919 0.195451-0.396019 0.062422-0.796132 0.124843-1.197268 0.185218-0.350994 0.053212-0.705058 0.104377-1.060145 0.155543-0.355087 0.051165-0.712221 0.101307-1.071402 0.149403-0.35918 0.049119-0.719384 0.096191-1.082658 0.143263-0.36225 0.047072-0.726547 0.092098-1.091868 0.137123-0.36532 0.045025-0.732687 0.089028-1.101077 0.130983-0.36839 0.042979-0.737804 0.084934-1.110287 0.125867-0.370437 0.040932-0.743944 0.081864-1.11745 0.12075-0.373507 0.039909-0.74906 0.078795-1.124614 0.115634-0.376577 0.037862-0.753153 0.074701-1.131777 0.11154-0.971118 0.093121-1.949398 0.181125-2.932796 0.265036-0.983397 0.083911-1.971911 0.163729-2.963495 0.239454-0.991584 0.075725-1.987261 0.148379-2.983961 0.217964-0.9967 0.069585-1.995447 0.1361-2.994194 0.200568-0.998747 0.064468-1.99647 0.125867-2.993171 0.186242-0.9967 0.060375-1.991354 0.118704-2.982938 0.177032-0.991584 0.057305-1.979074 0.11461-2.962471 0.170892-0.982374 0.056282-1.959631 0.112564-2.930749 0.168846-0.971118 0.056282-1.934049 0.113587-2.889817 0.170892-0.067538 0.004093-0.135076 0.008186-0.201591 0.01228-0.067538 0.004093-0.135076 0.008186-0.202615 0.01228-0.066515 0.004093-0.135076 0.008186-0.201591 0.01228-0.017396 0.001023-0.035816 0.002047-0.054235 0.00307-0.007163 0.001023-0.014326 0.002047-0.021489 0.00307-0.010233 0.001023-0.019443 0.00307-0.029676 0.004093-0.00921 0.001023-0.019443 0.00307-0.028653 0.004093-0.00921 0.001023-0.019443 0.00307-0.028653 0.005117-0.00921 0.001023-0.01842 0.00307-0.027629 0.005117C248.990864 437.245827 248.980631 437.247874 248.971421 437.248897zM314.499857 435.293359c0.278339 0.052189 0.502443 0.029676 0.655939-0.073678 0.154519-0.103354 0.239454-0.287549 0.239454-0.558725 0-0.540306-0.295735-0.939395-0.851391-1.043772-0.556679-0.105401-0.840134 0.143263-0.840134 0.683569C313.703725 434.840034 313.943179 435.187959 314.499857 435.293359zM466.1303 225.099103c0 36.83493 12.488429 72.614831 28.083615 106.267279-32.929993 57.682747-91.931782 100.036367-162.17766 112.611777-6.882757 1.232061-10.722202 8.601912-7.423063 14.767332l6.668886 12.461823c3.311419 6.187933 9.760295 10.050913 16.779152 10.050913l156.706041 0c11.785417 0 22.708188 6.176676 28.78151 16.276708l60.744479 101.006462L399.424039 598.541397 281.233196 598.541397c-23.375383 0-44.853557-12.866029-55.882751-33.476439L108.950388 347.554062c-12.112875-22.635533 4.28663-50.011021 29.958312-50.011021l98.614995 0c0 0 42.843784 1.693572 67.800175-2.733251 35.280528-6.260587 61.161988-23.006993 65.305355-58.597583 5.844102-50.200332-33.234939-92.789313-82.261539-92.789313-38.141692 0-70.178339 25.811876-79.808674 60.895929L99.5636 204.318824c-24.379247 0-41.567721-24.069185-33.607422-47.113017 30.627555-88.667435 118.613468-152.717194 222.412532-152.717194 87.61036 0 163.856905 45.699832 203.965391 113.246227C475.6757 149.92089 466.1303 186.225747 466.1303 225.099103zM765.280564 437.225361 869.865527 598.540374 710.426235 598.540374c-21.352307 0-41.229007-10.765181-52.832276-28.689413-29.40982-45.434795-86.092797-134.472668-115.244744-190.018751-24.197098-46.105061-55.223742-101.035114-55.223742-154.736177 0-120.260991 100.858082-219.528855 233.82956-219.528855s240.767576 97.490382 240.767576 217.751373C961.723631 329.866215 877.052207 418.389364 765.280564 437.225361zM824.327378 211.754167l-152.871713-100.739379c-10.739599-7.066953-25.038256 0.620124-25.038256 13.481036L646.417409 325.993001c0 12.845563 14.298658 20.550035 25.038256 13.482059l152.871713-100.755752C834.005808 232.336948 834.005808 218.136527 824.327378 211.754167z"  horiz-adv-x="1024" />

    
    <glyph glyph-name="icon" unicode="&#58883;" d="M193.39515-135.720709l106.377796 0L299.772946 91.276235 193.39515 91.276235 193.39515-135.720709zM370.698299-135.720709l106.377796 0L477.076094 197.654031 370.698299 197.654031 370.698299-135.720709zM569.297472-135.720709l106.404402 0L675.701874 282.796176 569.297472 282.796176 569.297472-135.720709zM760.814344-135.720709l106.406448 0L867.220792 403.359043 760.814344 403.359043 760.814344-135.720709zM855.433328 502.672956l41.929971 238.428298-238.444671-53.460586 73.582879-69.258387L525.199115 402.84432l-102.667288 92.105744L125.577578 190.404929l43.385113-42.244126-0.057305 0.071631L425.299871 411.179149l103.010095-92.333942 248.260224 258.065544L855.433328 502.672956z"  horiz-adv-x="1024" />

    
    <glyph glyph-name="yuanxing1" unicode="&#59038;" d="M527.548114 700.101467c-211.729216 0-383.393947-171.641195-383.393947-383.393947s171.664731-383.393947 383.393947-383.393947c211.753775 0 383.393947 171.641195 383.393947 383.393947S739.300866 700.101467 527.548114 700.101467z"  horiz-adv-x="1024" />

    
    <glyph glyph-name="yisheng" unicode="&#59016;" d="M511.997 341.437c113.419 0 193.723 87.729 193.723 202.986l0 30.91L318.284 575.333l0-49.362C318.284 431.024 409.995 341.437 511.997 341.437zM705.72 765.864C705.72 787.38 681.099 812 659.593 812L364.405 812c-21.504 0-46.12-24.62-46.12-46.136l0-147.627 387.436 0L705.72 765.864 705.72 765.864zM536.441 645.482l-48.925 0 0 48.069-50.549 0L436.967 737.337l50.549 0L487.516 785.482l48.925 0 0-48.145 50.525 0 0-43.787-50.525 0.001L536.441 645.482zM352.33 289.204l165.489-212.557 167.805 205.289c-53.162 28.928-111.871 45.013-173.627 45.013C455.618 326.95 401.745 313.558 352.33 289.204zM313.104 265.891C172.121 176.944 78.501-1.992 78.501-212l866.998 0c0.002 203.389-90.627 380.437-224.413 472.2L543.919 29.789l0-151.048-0.471 0c0.286-1.502 0.471-3.043 0.471-4.624 0-13.507-10.943-24.445-24.452-24.445-0.56 0-1.099 0.133-1.648 0.169l0-0.169L309.525-150.328l0 0c-12.686 0-22.973 10.279-22.973 22.979 0 0.504 0.114 0.975 0.148 1.467l-0.148 0L286.552-41.39c-47.234 8.432-83.117 49.621-83.117 99.278 0 55.755 45.192 100.949 100.943 100.949 55.752 0 100.952-45.194 100.952-100.949 0-49.142-35.13-90.038-81.64-99.055l0-62.216c0.657-0.522 1.351-1.021 1.952-1.611L494.21-104.994c0.378 0.488 0.768 0.969 1.18 1.422L495.39 30.708M303.349 6.014c-28.48 0-51.567 23.086-51.567 51.564 0 28.477 23.087 51.563 51.567 51.563 28.475 0 51.561-23.087 51.561-51.563C354.908 29.1 331.822 6.014 303.349 6.014z"  horiz-adv-x="1024" />

    
    <glyph glyph-name="ditu" unicode="&#58903;" d="M854.785598 254.485005c63.926416 82.629108 113.021494 152.765226 113.021494 232.107566 0 128.874836-108.273259 233.275718-241.969915 233.275718s-241.969915-104.473444-241.969915-233.275718c0-71.231708 42.08208-139.24921 97.094567-212.746702l-66.191179-21.187187-128.291271 40.547028c15.853342 26.520009 26.009006 52.236722 26.009006 79.925905 0 73.131615-59.177158 132.382358-132.090064 132.382358-72.985468 0-132.090064-59.250743-132.090064-132.382358 0-30.538533 13.36987-60.127623 32.730734-90.738718l-0.584587-0.072562L-4.0e-06-121.401297l272.654594 102.866852 248.107055-102.866852 232.910862 102.866852 269.148095-102.866852L854.785598 254.485005zM725.90974 599.906359c64.875858 0 117.478458-50.702692 117.478458-113.313787s-52.675162-113.387372-117.478458-113.387372c-64.949443 0-117.478458 50.775255-117.478458 113.387372S660.961319 599.906359 725.90974 599.906359zM280.471907 437.423909c35.360353 0 64.145125-28.784772 64.145125-64.291271 0-35.433937-28.784772-64.291271-64.145125-64.291271-35.432915 0-64.145125 28.858356-64.145125 64.291271C216.326782 408.638115 245.038992 437.423909 280.471907 437.423909zM748.996834 42.615183l-228.381336-98.92089-243.431382 98.92089-181.55102-82.702692 104.035004 268.417361 16.949954 3.214206c20.675162-27.615598 43.250232-56.766248 63.852831-89.131104 25.643129 40.985468 52.6026 75.031522 75.616109 106.299767l158.829804-50.994986 99.432915 32.364856c36.38338-46.684169 75.542525-95.926416 111.487464-150.20817 33.680176 51.725719 68.528504 96.875858 101.186676 138.738207l104.911884-261.987928L748.996834 42.615183zM50.297974 811.846699 50.297974 772.269554 50.297974 811.846699ZM0.356676 752.48047 33.650534 752.48047 0.356676 752.48047ZM0.356676-152.48047 33.650534-152.48047 0.356676-152.48047ZM50.297974-211.846699 50.297974-172.269554 50.297974-211.846699ZM975.866624 811.846699 975.866624 772.269554 975.866624 811.846699ZM1025.807923 752.48047 992.514064 752.48047 1025.807923 752.48047ZM1025.807923-152.48047 992.514064-152.48047 1025.807923-152.48047ZM975.866624-211.846699 975.866624-172.269554 975.866624-211.846699Z"  horiz-adv-x="1026" />

    
    <glyph glyph-name="anonymous-iconfont" unicode="&#58885;" d="M157.708-157.469v89.627c114.651 27.601 171.977 90.761 171.977 189.464l-0 108.915h-156.28v90.761h156.28l-0 150.891c0 76.766 28.321 139.731 84.964 188.897 56.644 49.157 130.231 73.744 220.773 73.744 59.136 0 114.651-8.509 166.518-25.526v-103.241c-52.785 24.579-107.143 36.872-163.106 36.872-119.664 0-179.485-60.696-179.485-182.090v-139.546h233.399v-90.761l-233.399-0v-90.761c0-94.547-46.864-162.999-140.584-205.349h545.959v-91.896l-707.017 0z"  horiz-adv-x="1024" />

    
    <glyph glyph-name="anonymous-iconfont1" unicode="&#58886;" d="M880.666-102.711c-70.916-28.822-146.516-43.229-226.782-43.229-229.493 0-366.396 99.043-410.717 297.128h-96.77v85.91h84.951c-1.974 12.397-2.955 27.173-2.955 44.323 0 18.237 1.478 39.031 4.432 62.381h-86.427v85.911h104.157c27.078 94.844 78.915 168.622 155.498 221.341 76.571 52.711 169.037 79.071 277.382 79.071 74.355 0 140.099-11.132 197.233-33.379v-102.327c-60.089 31.002-128.048 46.512-203.881 46.512-63.042 0-120.408-18.605-172.117-55.814-51.709-37.209-88.401-89.014-110.067-155.404h390.034v-85.911l-408.503 0c-3.451-36.116-3.693-71.684-0.739-106.704h409.241v-85.909h-395.944c39.394-139.356 130.993-209.031 274.798-209.031 70.42 0 142.815 17.323 217.177 51.985l0-96.855z"  horiz-adv-x="1024" />

    
    <glyph glyph-name="hongqi" unicode="&#58884;" d="M315.210063-212 252.040966-212 253.990108 812l61.219955-41.94164L315.210063-212zM766.345501 454.098526 306.835249 133.850578 306.835249 775.757652 766.345501 454.098526 766.345501 454.098526zM771.959031 481.817925 771.959031 481.817925 771.959031 481.817925 771.959031 481.817925zM320.438961 796.473134"  horiz-adv-x="1024" />

    
    <glyph glyph-name="font34" unicode="&#58950;" d="M542.592-84l0 77.12c66.496 2.56 120.704 21.44 162.56 56.768C747.072 85.28 768 129.312 768 182.176c0 24-4.992 46.336-15.04 66.944-10.048 20.608-24.384 38.4-43.008 53.376-18.688 14.976-42.752 27.712-72.32 38.144C622.144 346.08 590.464 353.568 542.592 363.168L542.592 583.136C573.568 578.016 597.952 567.52 615.744 551.584c17.792-15.936 29.504-38.912 35.136-68.864l98.176 11.84c-8.448 48.32-33.408 86.336-74.944 113.984-32.384 21.76-76.16 34.752-131.456 38.976L542.656 684 486.656 684l0-36.416C423.68 642.464 376.192 628.64 344.128 606.048c-47.872-33.664-71.808-77.568-71.808-131.84 0-30.528 8.192-57.792 24.576-81.792 16.384-24 39.68-42.816 69.952-56.384 40.832-18.368 80.768-30.528 119.808-36.48l0-242.88c-37.312 3.136-69.312 18.24-96.064 45.376-18.624 19.2-31.68 49.28-39.04 90.304L256 177.952c3.52-39.552 16.128-73.024 37.76-100.416 21.632-27.392 47.296-47.232 77.056-59.584 29.76-12.288 68.352-20.8 115.84-25.664L486.656-84 542.592-84zM486.656 372.896C443.392 383.328 412.672 397.344 394.56 414.88 376.448 432.352 367.36 454.112 367.36 480.16c0 26.304 10.624 49.024 31.936 68.224 21.312 19.2 50.432 31.104 87.36 35.584L486.656 372.896zM542.592 288.992c51.008-13.312 85.056-28.352 102.144-45.12 17.088-16.832 25.6-39.04 25.6-66.752 0-32.512-12.032-59.776-36.16-81.792-24.128-22.016-54.656-34.88-91.584-38.592L542.592 288.992z"  horiz-adv-x="1024" />

    
    <glyph glyph-name="dadianhua" unicode="&#58887;" d="M406.966 84.272c-0.95 1.773-1.819 3.526-2.607 5.154-1.925 3.975-3.651 8.038-5.164 12.178-14.066 20.385-12.711 46.941-11.686 70.911 0.62 14.497 0.205 29.003 2.205 43.413 1.714 12.351 5.091 24.043 9.902 35.403l-23.773 23.818-39.597-39.658 19.801-39.67-20.879-45.337-78.715 164.324c0 0-128.58-49.518-173.194-79.325-44.612-29.798-64.321-169.845-64.321-169.845h392.522c-0.103 2.491-0.199 4.977-0.276 7.471-1.891 3.418-3.269 7.22-4.219 11.163zM375.216 66.886h0.003l-0.002-0.003zM234.686 463.89c9.324-76.442 75.619-155.565 135.593-155.565 69.121 0 134.729 83.182 144.97 155.565 3.911 2.755 10.303 9.375 12.663 24.463 0 0 14.73 52.508-4.829 46.79 6.779 20.234 29.342 98.902-14.398 147.869 0 0-20.433 27.705-70.212 42.443l-23.309 7.946c-9.094 6.629-27.567 22.23-27.567 39.483 0 0-11.514-5.31-18.334-15.085 2.678 7.946 7.173 15.538 14.397 21.647 0 0-7.572-3.937-14.586-12.342-5.412-3.024-17.839-11.362-21.989-26.453l0.314 1.085c0 0-2.56 3.321-9.494 4.348-6.842 0.973-18.844-3.6-18.844-3.6s-72.553-28.177-93.582-92.953c0 0-12.436-29.369 3.91-115.415-23.25 10.915-7.361-45.761-7.361-45.761 2.411-15.090 8.797-21.712 12.659-24.464zM366.882 764.251c-3.567-4.852-6.595-10.96-8.035-18.395l-2.591 0.911c1.964 6.412 5.388 12.287 10.626 17.479zM696.605 131.419c-9.97 1.851-28.639-15.073-28.639-15.073 53.392-33.721 53.254-74.663 53.254-74.663s12.145 6.062 18.511 16.487c6.365 10.427 8.546 22.734-6.933 44.29-15.507 21.583-26.197 27.057-36.194 28.96v0 0zM497.527 305.437c-10.086-1.085-22.996-22.764-22.996-22.764 60.924-16.643 72.787-55.843 72.787-55.843s10.332 13.335 13.383 25.154c3.033 11.808 1.009 20.29-20.111 36.377-21.107 16.090-32.958 18.194-43.061 17.074v0 0zM574.835 366.955c-108.333 0-196.479-87.573-196.479-195.205 0-107.603 88.147-195.175 196.479-195.175 48.635 0 92.912 17.931 127.253 47.124 3.677 0.731 13.596 3.609 11.439 13.767-2.607 12.463-22.004 52.691-51.829 70.364 0 0-11.254 6.662-21.087-5.476 0 0-15.366-5.511-48.945 26.892-33.569 32.427-63.958 57.015-52.976 90.031 0 0 4.928 17.648-36.482 41.068-41.393 23.462-44.413 8.563-46.457 2.492-2.014-6.103-13.463-28.822-4.912-50.969 6.956-18.026 29.387-63.844 95.397-126.359 55.388-52.39 89.539-72.577 116.006-73.145-25.957-14.155-55.725-22.299-87.404-22.299-100.896 0-182.976 81.518-182.976 181.682 0 100.198 82.079 181.714 182.976 181.714 100.892 0 182.973-81.518 182.973-181.714 0-1.099-0.154-2.182-0.187-3.276h13.52c0.023 1.099 0.187 2.182 0.187 3.276-0.002 107.636-88.16 195.209-196.494 195.209v0 0zM574.835 366.955z"  horiz-adv-x="1024" />

    
    <glyph glyph-name="sanjiaoxing" unicode="&#58925;" d="M511.570723 383.543605l511.549745-511.543605L0.020978-128 511.570723 383.543605z"  horiz-adv-x="1024" />

    
    <glyph glyph-name="pingguo" unicode="&#59298;" d="M369.862769 667.610336c78.313623 0 141.80568 38.731116 141.80568 86.511329 0 47.77612-63.492056 86.507236-141.80568 86.507236-78.319763 0-141.806703-38.731116-141.806703-86.507236C228.056066 706.340429 291.541983 667.610336 369.862769 667.610336M514.544963 612.315986l57.075927 0c-1.870604 9.222035-2.880607 18.760273-2.880607 28.535917 0 68.528769 48.354288 125.300774 112.775506 139.066289 0.483001-0.020466 0.893346 0.063445 1.382487 0.063445 15.764032 0 28.541033 12.782118 28.541033 28.541033 0 15.764032-12.777001 28.542056-28.541033 28.542056l0 0.687662c-96.686063-13.954827-171.235966-96.339162-171.235966-196.895369C511.668449 631.076258 513.181919 621.7171 514.544963 612.315986L514.544963 612.315986 514.544963 612.315986zM679.334099 612.315986c-41.212634 0-131.884726-43.016723-167.261445-58.733683-35.398208 15.722076-129.638569 58.733683-170.861436 58.733683-157.681252 0-230.206032-127.82527-230.206032-285.500383 0-21.688975 2.88777-42.606377 7.467065-62.907749 30.386054-190.522218 194.114023-336.535733 393.196197-336.535733 198.041472 0 361.270067 144.456043 392.892275 333.522096 5.064342 21.290909 8.43409 43.200918 8.43409 66.026786C912.994814 484.537787 836.951907 612.315986 679.334099 612.315986L679.334099 612.315986 679.334099 612.315986zM396.715347 477.492324c-55.803957-27.227108-97.218182-79.261205-109.069091-142.217049-0.299829-15.505136-12.95608-27.978215-28.525684-27.978215-15.764032 0-28.541033 12.771885-28.541033 28.541033 0 2.429329 0.310062 4.79112 0.877997 7.046486 14.786775 83.887572 70.248947 153.063071 145.130402 187.724499 3.828188 1.904373 8.134261 2.975774 12.692067 2.975774 15.759939 0 28.542056-12.777001 28.542056-28.535917C417.822061 491.85238 408.866085 480.762811 396.715347 477.492324L396.715347 477.492324zM396.715347 477.492324"  horiz-adv-x="1024" />

    
    <glyph glyph-name="xuesheng" unicode="&#58911;" d="M761.70769 313.678398c26.798343 38.698371 61.874209 84.657098 88.668459 123.357516-80.934311-1.230014-77.470419-19.929912-125.037784-44.656059-5.959735-5.958712-11.909238-11.906168-17.863856-17.863856-33.423227 74.752518-44.399209 213.846436-86.516446 232.215806-40.048111 11.663644-162.257477 12.010545-172.493609 0-61.509912-51.455929-91.725074-106.678648-98.244558-214.351949-17.863856 5.956665-35.725666 11.905144-53.589522 17.86181C257.778506 353.260905 203.444017 295.954735 144.409482 249.478214c-0.211824-4.618181 3.585665-33.617655 3.1569-72.249511-0.031722-2.814092 21.391193 1.603521 21.75242-1.300622 4.503571-36.144198-0.208754-96.92347 1.62808-141.194766 8.93244-2.973728 33.665751-2.65241 43.25106-1.755993 0.656963 40.327474 1.462305 75.170027 2.051729 136.116097l9.967002 0c2.977821-38.700417 4.676509-97.236602 4.789073-135.782499 7.139607-1.292436 30.571273-0.331551 39.503712-0.331551 0.448208 52.714596 0.887206 104.192014 4.750187 142.15565 0.308015 3.019777 22.36538-0.189312 22.675442 2.807952 5.373381 51.973722 0.517793 107.015316-1.302669 178.710194 32.747845-11.905144 54.407144-16.947997 87.154989-28.851095 11.651364-4.402263 17.34811 0.517793 15.794731 9.838066 18.383696 36.767392 4.332678 128.09133 31.021527 170.846086l0 17.862833c2.978844-157.774373 5.952572-331.125513 8.93244-488.895793 5.952572-5.956665 68.472488-5.956665 71.451332 0L510.987439 338.791355l26.792203 0 0-301.338093c20.004613-4.821819 40.199561-5.980201 61.872163-2.330068 2.975774 163.723875 5.959735 327.505056 8.93244 491.225861 8.93244-2.977821 18.934235-8.169053 23.685445-35.859719 17.968234-73.664743 20.87954-124.904755 30.549783-178.49223 8.973372-26.796296 65.49876 29.776164 98.244558 44.656059C764.034688 344.748021 758.732939 325.584566 761.70769 313.678398zM877.170398 437.035914c-54.704926-73.013921-76.411297-90.584088-111.38074-156.587338-6.049786-11.420097-7.740288-148.731416-4.726651-245.711168 14.815427-2.362814 32.162514-1.845021 47.76077-0.647753 2.975774 62.513776 5.956665 126.084627 8.934486 188.596356l13.071713 0c2.973728-59.538001 5.956665-128.410602 8.930393-187.948603 2.975774-2.973728 40.986483-0.981351 46.338375 0L886.098745 356.653165c12.422937 5.239328 35.205826-31.010271 38.8314-111.447255 1.898233-8.28571 24.726148-7.223518 33.543977 5.867638C975.565383 276.448472 944.156022 431.110971 877.170398 437.035914zM160.078347 409.188682c0 5.350868-4.206812 12.214183-7.42204 17.189498-56.863079-36.388768-79.093383-43.085284-75.386968-142.900617l8.93244 0C100.010273 341.178729 105.243461 372.274958 160.078347 409.188682zM269.839193 419.173081c-14.885012 2.978844-74.430176 0.13303-89.314165-5.823636C116.182604 383.973394 96.21176 328.751698 86.032934 244.944967c10.870582-4.400217 24.590048-4.370541 32.617885-4.370541 7.265474 65.044412 15.880689 81.616856 25.501814 80.353073 2.979868-14.879895-2.721994-49.833989 0.255827-49.833989C197.881324 317.186292 276.334117 405.478174 269.839193 419.173081zM918.259212 439.855122c-7.027044 1.439792-8.033977 0.322341-14.247492-6.119371 37.627992-33.833573 47.329958-54.581106 56.304354-107.401102 5.956665 5.957689 9.140171 9.921977 15.099906 15.881712C979.649398 398.314007 954.762591 432.373731 918.259212 439.855122zM526.711562 698.835502m-71.462588 0a69.835 69.835 0 1 0 142.925177 0 69.835 69.835 0 1 0-142.925177 0ZM227.34538 494.692055m-57.655118 0a56.342 56.342 0 1 0 115.310236 0 56.342 56.342 0 1 0-115.310236 0ZM834.662259 507.82312m-57.656141 0a56.343 56.343 0 1 0 115.312282 0 56.343 56.343 0 1 0-115.312282 0Z"  horiz-adv-x="1024" />

    
    <glyph glyph-name="lingxing" unicode="&#58926;" d="M512 826.521l442.498-442.498-442.498-442.498-442.498 442.498 442.498 442.498z"  horiz-adv-x="1024" />

    
    <glyph glyph-name="feiji" unicode="&#58922;" d="M304.988185-124.30166c0 3.027022-3.45381 4.178292-7.675134 2.558378-6.179066-2.371105-7.611748 1.761034-7.349959 21.198772l0.32517 24.144028 76.426163 66.088791 76.426174 66.088842 0 109.160059c0 70.201179-1.847456 109.16011-5.176428 109.16011-2.847035 0-86.517491-26.479214-185.934336-58.842697-99.416849-32.363483-183.432713-58.842697-186.701926-58.842697-4.039479 0-5.944028 13.685276-5.944028 42.711202l0 42.711202 191.878354 149.60858 191.878364 149.6086 0 142.992077c0 160.036657 1.251779 167.206449 33.485081 191.791989 16.048322 12.240652 24.117687 14.6603 48.891102 14.6603 33.253901 0 50.168976-9.239607 69.847304-38.15308 11.278815-16.572046 11.512702-19.899191 11.512702-163.787493l0-146.871826 191.878359-149.764799 191.878359-149.764804 0-42.870947c0-28.433507-1.945288-42.870998-5.77646-42.870998-3.177045 0-88.323604 26.910351-189.214627 59.80086-100.890971 32.890458-184.451029 58.787947-185.688977 57.550051-1.237897-1.237948-0.943632-51.987164 0.654024-112.776019l2.904783-110.525261 73.265093-63.430994 73.265093-63.431045 0.168341-24.144028c0.135594-19.399772-1.339567-23.565272-7.506588-21.198772-4.221324 1.619914-7.675134 0.647986-7.675134-2.159783 0-2.807769-46.529018 8.458612-103.397824 25.036339-56.868703 16.577779-109.508817 30.141378-116.977899 30.141378-10.344751 0-174.405726-45.267789-213.269209-58.845357-3.51777-1.228994-6.395945 0.242023-6.395945 3.269044z"  horiz-adv-x="1024" />

    
    <glyph glyph-name="qqkongjian-copy" unicode="&#58888;" d="M658.918 452.397c-178.697 32.073-326.847-4.582-326.847-4.582 87.058 3.055 226.044-16.801 226.044-16.801l-190.916-140.513c116.947-18.074 236.112-5.805 297.742 3.321l-1.519 8.852c-78.52 4.359-187.785 16.847-187.785 16.847l183.28 132.877zM511.63 893.333c-281.077 0-508.939-227.859-508.939-508.939s227.859-508.939 508.939-508.939 508.939 227.859 508.939 508.939-227.859 508.939-508.939 508.939zM684.287 291.468c18.893-1.049 36.223-1.685 50.482-1.685 0 0-18.139-3.853-48.755-8.385l33.373-194.579-211.232 111.052-211.232-111.052 40.342 235.211-170.892 166.575 236.165 34.317 105.616 214.002 105.616-214.002 236.165-34.317-170.892-166.576 5.242-30.561zM801.843 463.943z"  horiz-adv-x="1024" />

    
    <glyph glyph-name="che1-copy" unicode="&#58889;" d="M236.033 229.55c-52.684 0-95.551-42.855-95.551-95.528 0-52.691 42.867-95.547 95.551-95.547s95.551 42.856 95.551 95.547c0 52.673-42.867 95.528-95.551 95.528zM1001.548 167.675l-4.704 23.592c-2.572 13.876-9.010 17.693-17.489 21.774h-81.031c16.694-21.979 26.704-49.304 26.704-79.018 0-6.837-0.683-13.509-1.694-20.060h36.479c36.796-0.001 46.5 19.325 41.734 53.711zM793.913 229.55c-52.673 0-95.551-42.855-95.551-95.528 0-52.691 42.877-95.547 95.551-95.547 52.706 0 95.553 42.856 95.553 95.547 0 52.673-42.849 95.528-95.553 95.528zM162.911 242.652c16.915 11.408 36.604 18.935 57.876 21.412h31.97v-0.147c20.684-2.653 39.847-10.142 56.357-21.264h411.442c20.93 14.163 46.174 22.449 73.357 22.449 27.184 0 52.439-8.286 73.378-22.449h99.112l-10.939 60.957c-8.959 37.039-27.622 47.528-77.735 54.162-67.185 8.918-181.889 26.1-181.889 26.1-54.46 40.488-100.469 83.366-183.256 90.752l-5.388 10.815c-0.521 1.062-9.643 25.245-39.367 25.245l-186.659 0c-29.443 0-36.964-16.632-40.107-23.397-2.586-5.571-5.54-11.99-5.54-11.99-87.235-8.224-176.623-95.812-176.603-135.586l0.224-97.058h103.768zM878.445 316.588c3.122 0 34.654 0 50.52 0 2.817-4.552 4.571-9.999 6.205-16.673l6.449-35.917h-25.368c-19.213 0-27.969 5.102-36.153 19.694l-8.958 17.999c-5.46 11.143 3.101 14.897 7.306 14.897zM652.648 373.444l-358.509 0.23 46.609 73.4 132.633-0.061c83.786 0 120.714-27.979 179.266-73.569zM259.87 478.552c2.514 5.417 5.291 11.397 21.3 11.397h186.66c12.893 0 18.204-7.817 20.224-12.478l0.526-1.165 0.219-0.439c-48.617 0-157.010-0.019-230.093 0.165l1.164 2.52zM246.931 447.074l52.49-0.061-46.62-73.338h-75.78v-0.23h-60.712c17.347 25.366 75.674 73.63 130.622 73.63zM79.644 316.588h36.103c9.877 0 17.909-10.612 8.541-22.591-4.194-5.346-24.428-29.836-24.428-29.836h-20.337l0.122 52.426zM54.828 213.040c-5.204-7.427-9.358-15.508-9.623-30.611l-0.123-21.713c0-29.713 23.093-34.183 61.245-44.774-0.817 5.918-1.388 11.938-1.388 18.081 0 29.693 9.877 57.060 26.52 79.018l-76.632-0zM340.504 213.040c16.673-21.958 26.622-49.304 26.622-79.018 0-6.837-0.684-13.488-1.683-20.019l299.083-0.020c-1.011 6.551-1.694 13.203-1.694 20.039 0 29.714 10.010 57.039 26.684 79.018l-349.012 0z"  horiz-adv-x="1024" />

    
    <glyph glyph-name="in" unicode="&#58941;" d="M512.022 896C229.238 896 0 666.749 0 383.95 0 101.251 229.238-128 512.022-128 794.756-128 1024 101.251 1024 383.95 1024 666.749 794.756 896 512.022 896L512.022 896 512.022 896zM363.739 120.962 245.157 120.962l0 394.24 118.583 0L363.74 120.962 363.739 120.962 363.739 120.962 363.739 120.962zM796.39 120.962 677.733 120.962 677.733 330.317c0 54.063-19.152 81.978-57.552 81.978-31.366 0-50.563-15.707-59.28-45.345l0-245.988L442.269 120.962c0 0 1.75 354.114 0 394.24l92.481 0 6.938-78.448 1.729 0c24.512 40.092 62.822 66.239 116.927 66.239 40.078 0 73.213-10.458 97.68-40.098 24.373-27.887 38.355-66.295 38.355-118.584l0-223.349L796.39 120.962 796.39 120.962 796.39 120.962 796.39 120.962zM365.491 612.893c0-33.143-27.886-59.285-61.021-59.285-33.185 0-61.069 26.142-61.069 59.285 0 33.18 27.885 59.328 61.069 59.328C337.593 672.221 365.491 646.073 365.491 612.893L365.491 612.893 365.491 612.893 365.491 612.893zM365.491 612.893"  horiz-adv-x="1024" />

    
    <glyph glyph-name="biaozhu1" unicode="&#58943;" d="M470.74 326.871v-296.759h109.494v296.759q-28.653-7.163-55.259-7.163t-54.235 7.163zM524.975 788.383q-25.583 0-50.654-6.14t-47.072-16.885-40.932-25.583-34.281-34.281-26.094-40.932-16.885-46.56-6.14-50.654q0-91.074 64.98-156.054t157.078-64.98 157.078 64.98 64.98 156.054-64.98 156.054-157.078 64.98zM438.506 662.516q-8.698 0-15.861 4.093t-11.256 11.768-4.093 15.861q0 12.28 9.21 21.489t21.489 9.21q6.14 0 12.28-2.047t10.233-6.651 6.651-10.233 2.558-11.768q0-8.186-4.093-15.861t-11.256-11.768-15.861-4.093z"  horiz-adv-x="1024" />

    
    <glyph glyph-name="nansheng" unicode="&#58955;" d="M590.56 261.568c21.072 0.56 41.52-1.68 62.592-5.664l3.408-63.12-29.024 0-12.48 0 6.24-10.816 25.024-41.52c-42.672-54.032-109.184-151.296-140.48-210.4l6.288-3.424c22.752 42.656 114.304 165.488 148.432 208.72l2.816 3.968-2.256 4-21.04 35.248 23.872 0 7.408 0-0.592 7.408-3.408 67.072c18.208-3.952 29.424-14.784 29.424-14.784l89.424-315.36L214.16-77.104l67.76 315.36c0 0 14.032 11.952 33.984 15.92l-3.424-68.224-0.576-7.408 7.392 0 23.888 0-21.056-35.248-2.272-4 2.848-3.968c49.488-62.56 95.568-124.544 133.088-194.496l5.104 2.288c-36.96 68.816-75.072 134.784-123.408 196.752l25.024 41.504 6.24 10.848-12.48 0-29.024 0 3.44 64.816c19.344 3.408 38.688 5.104 57.984 4.544 2.864-52.304 40.368-110.304 70.528-164.912l14.8 82.448-14.256 21.6 15.952 18.208 27.28 0 15.936-15.36-10.816-24.432 15.36-93.84C551.888 148.384 589.44 222.896 590.56 261.568L590.56 261.568zM370.144 495.616c65.808-8.896 192.496 4.016 245.232 27.328 2.112-34.704 2.672-102.048-18.848-153.664-10.064-24.384-25.072-43.712-40.576-58.672l124.096-2.928c0 0-12.448 100.336-8.704 126.352 50.912 356.112-409.312 356.112-358.4 0 3.68-26.016-8.672-126.352-8.672-126.352l125.008 3.008c-15.504 14.88-30.512 34.208-40.608 58.592-16.752 40.288-20.096 90.048-19.744 126.48L370.144 495.616 370.144 495.616zM791.232 680.64 492.16 816 193.072 680.64 492.16 545.28l264.384 120.192c-1.28-58.064-8.944-122.576-13.392-128.48l18.848 0 18.8 0c-4.608 5.92-12.56 73.952-13.472 133.376L791.232 680.64 791.232 680.64z"  horiz-adv-x="1024" />

    
    <glyph glyph-name="flight-go" unicode="&#58891;" d="M844.405 458.673l-215.685-0.085-247.527 366.889-102.336-0.969 173.51-377.895-264.131-14.032-103.509 154.195-48.197-0.609 40.525-214.042-43.609-185.406 48.205 0.427 105.901 139.689 260.079-7.25-175.652-371.245 102.364 0.943 251.971 357.514 216.806-0.177c97.179 0.969 140.38 35.375 140.619 78.579 0.429 42.879-42.148 74.071-139.337 73.475z"  horiz-adv-x="1024" />

    
    <glyph glyph-name="aiqiyi" unicode="&#59007;" d="M524.637204-40.920064c-149.540864-1.240064-284.771328 6.849536-418.706432 31.859712C38.41026 3.550208-1.05982 49.149952 0.490516 112.62976c0.44544 18.010112 6.864896 27.360256 25.284608 27.240448 14.50496-0.100352 29.02528-0.109568 43.53536-0.19968 16.900096-0.130048 29.2096-4.740096 34.459648-23.90016 7.100416-25.910272 27.840512-37.680128 53.220352-41.220096 63.58528-8.859648 127.245312-16.940032 191.415296-20.660224 101.440512-5.890048 202.841088-8.229888 304.340992-0.44032 73.289728 5.619712 146.490368 11.459584 219.040768 23.87968 19.120128 3.279872 34.709504 12.13952 39.109632 30.780416 6.890496 29.110272 25.849856 32.610304 51.17952 32.350208 64.900096-0.719872 67.040256-2.499584 50.110464-64.20992-10.479616-38.299648-31.80032-65.800192-72.189952-77.819904-63.070208-18.799616-128.280576-24.479744-192.970752-30.539776C668.746772-39.419904 589.976596-44.82048 524.637204-40.920064M525.887508 800.581632c115.680256 7.180288 242.610176-6.670336 368.561152-26.90048 74.46016-11.96032 110.28992-30.690304 126.029824-118.84032 4.219904-23.650304-5.510144-33.30048-28.019712-32.589824-14.52032 0.449536-29.02016 2.56-43.490304 2.310144-17.92-0.310272-28.8 6.509568-35.149824 23.9104-8.580096 23.650304-27.759616 35.309568-52.119552 38.549504-149.330944 19.800064-299.271168 32.260096-449.842176 24.170496-86.859776-4.660224-173.370368-16.060416-259.924992-25.380864-20.519936-2.209792-38.925312-12.630016-45.42464-33.240064-7.9104-25.119744-24.53504-30.860288-47.680512-28.730368-10.309632 0.950272-20.759552 1.210368-31.115264 0.889856-20.004864-0.62976-27.209728 8.73984-27.0848 28.439552 0.320512 54.290432 33.824768 99.371008 86.270976 111.010816C227.385364 795.352064 369.915924 804.081664 525.887508 800.581632M412.176404 378.121216c0-41.40032 0.480256-82.809856-0.249856-124.199936-0.260096-14.32064-2.429952-28.83072-5.659648-42.820608-4.100096-17.760256-31.760384-36.870144 7.619584-50.060288 9.21088-3.090432 6.790144-22.750208 2.99008-34.830336-3.720192-11.920384-15.070208-14.980096-25.20064-14.220288-29.270016 2.230272-61.620224-2.199552-79.670272 30.220288-5.310464 9.530368-14.749696 10.170368-24.29952 10.540032-10.349568 0.400384-20.769792 0.470016-30.969856 1.970176-95.770624 14.05952-106.9056 26.970112-106.92096 123.071488 0 80.709632-0.20992 161.449984 0.124928 242.169856 0.175104 43.260928 16.400384 63.690752 57.724928 76.980224 51.280896 16.499712 102.070272 14.249984 152.491008-2.910208 35.030016-11.9296 50.56-33.989632 51.600384-76.20096 1.130496-46.539776 0.239616-93.139968 0.239616-139.710464L412.176404 378.120192zM306.80578 378.730496l0.100352 0c0 44.470272-0.149504 88.930304 0.079872 133.399552 0.069632 18.3808-2.920448 32.960512-26.430464 33.020928-21.520384 0.060416-29.41952-10.86976-29.389824-30.840832 0.149504-88.930304 0.050176-177.880064 0.149504-266.811392 0.01024-19.510272 5.699584-36.25984 28.619776-36.320256 24.349696-0.079872 26.720256 18.650112 26.810368 37.260288C306.935828 291.87072 306.80578 335.291392 306.80578 378.730496M740.99714 454.071296c13.100032 41.629696 24.720384 73.719808 33.08032 106.660864 6.4 25.260032 19.059712 35.030016 45.719552 34.929664 79.961088-0.270336 69.221376-4.519936 47.780864-64.44032-18.820096-52.570112-34.60096-106.49088-57.290752-157.350912-23.220224-52.089856-15.36-105.520128-17.619968-158.811136-0.759808-17.680384 7.440384-40.769536-15.529984-49.08032-24.720384-8.96-51.030016-3.39968-76.17024 2.76992-6.17984 1.529856-7.87968 9.039872-8.680448 15.399936-0.270336 2.050048-0.749568 4.190208-0.470016 6.17984 19.349504 131.381248-46.189568 243.110912-84.129792 361.141248-12.460032 38.729728-10.380288 43.270144 29.85984 43.629568 9.339904 0.090112 18.750464-0.789504 27.96032 0.159744 22.280192 2.299904 34.36032-7.079936 40.389632-28.760064C715.546644 531.741696 727.276564 497.55136 740.99714 454.071296M1023.71842 376.940544c0-59.010048-0.579584-118.030336 0.270336-177.031168 0.360448-24.080384-6.849536-35.670016-33.47968-36.110336-67.749888-1.120256-67.739648-2.12992-67.749888 66.499584-0.01024 108.710912 0.759808 217.41056-0.539648 326.091776-0.360448 29.939712 10.21952 39.799808 39.749632 39.310336 61.609984-1.000448 61.620224 0.249856 61.609984-60.35968 0-52.810752 0-105.6 0-158.400512L1023.71842 376.940544 1023.71842 376.940544zM564.046868 376.100864c0-61.02016-0.799744-122.080256 0.459776-183.10144 0.4096-20.2496-6.590464-27.459584-26.210304-28.860416-76.20096-5.459968-76.16-5.890048-76.17024 69.610496 0 105.521152-0.029696 211.050496 0.02048 316.581888 0.01024 41.61024 2.910208 44.480512 43.599872 44.8 6.21056 0.050176 12.500992-0.61952 18.640896 0.100352 29.689856 3.40992 40.280064-9.430016 39.47008-39.109632-1.680384-59.96032-0.499712-120.000512-0.499712-180.020224C563.597332 376.100864 563.817492 376.100864 564.046868 376.100864M96.46594 316.450816c-0.039936-40.280064-0.64512-80.580608 0.2048-120.841216 0.470016-22.509568-9.074688-30.780416-31.309824-31.609856C0.369684 161.580032 0.374804 160.929792 0.369684 226.509824c-0.00512 68.170752 0.775168 136.36096-0.355328 204.490752-0.43008 25.39008 8.75008 34.57024 34.235392 34.660352 73.771008 0.239616 61.950976 4.939776 62.235648-59.360256C96.620564 376.35072 96.500756 346.411008 96.46594 316.450816M96.520212 544.971776c-0.024576-50.550784-0.024576-50.550784-45.620224-50.550784-50.594816 0-50.594816 0-50.535424 51.600384C0.405524 595.2512 0.405524 595.2512 50.33474 595.181568 96.540692 595.101696 96.540692 595.101696 96.520212 544.971776"  horiz-adv-x="1025" />

    
    <glyph glyph-name="kefu" unicode="&#58974;" d="M510.257495 717.734478c-139.235408 0-252.099739-110.566324-252.099739-246.948723 0-136.3784 112.864331-246.944723 252.099739-246.944723 139.231408 0 252.095739 110.566324 252.095739 246.944723C762.298233 607.168154 649.488903 717.734478 510.257495 717.734478L510.257495 717.734478 510.257495 717.734478zM219.135642 375.951476 219.135642 603.973144c-3.191009 0-6.381019-0.111-9.462028-0.389001C261.347766 715.778472 376.395103 793.929701 510.257495 793.929701c133.858392 0 248.959729-78.151229 300.577881-190.345558-3.135009 0.222001-6.270018 0.389001-9.461028 0.389001l0-228.022668c64.270188 0 116.448341 51.05815 116.448341 113.983334 0 42.772125-24.072071 80.001234-59.622175 99.542292C808.149368 730.612515 671.489967 831.944812 510.257495 831.944812c-161.236472 0-297.840873-101.332297-347.948019-242.46771-35.550104-19.485057-59.623175-56.770166-59.623175-99.486291C102.686301 427.009626 154.809454 375.951476 219.135642 375.951476L219.135642 375.951476 219.135642 375.951476zM761.794232 245.228093c-65.893193-60.242176-154.292452-97.133285-251.535737-97.133285-97.077284 0-185.365543 36.724108-251.203736 96.795284C141.261414 185.545919 63.891187 79.792609 63.891187-63.807812l895.752624 0C959.643811 80.07061 880.872581 185.93792 761.794232 245.228093L761.794232 245.228093 761.794232 245.228093zM761.794232 245.228093"  horiz-adv-x="1025" />

    
    <glyph glyph-name="boshimao-copy" unicode="&#58890;" d="M1004.753 528.050l-484.661 208.438c-2.966 1.282-6.126 1.922-9.248 1.922-3.14 0-6.282-0.641-9.266-1.922l-484.659-208.438c-10.218-4.375-16.982-15.535-16.982-27.977 0-12.463 6.765-23.603 16.982-27.999l484.66-208.439c2.986-1.303 6.126-1.945 9.266-1.945 3.121 0 6.281 0.641 9.248 1.945l376.819 162.059v-165.792c-20.199-10.697-34.235-33.963-34.235-61.015 0-27.055 14.035-50.319 34.235-61.015v-57.834h49.628v57.823c20.21 10.695 34.255 33.967 34.255 61.026s-14.045 50.332-34.255 61.028v187.124l58.215 25.039c10.215 4.397 16.982 15.534 16.982 27.999-0.001 12.441-6.768 23.6-16.983 27.975zM510.845 221.8c-7.425 0-14.714 1.525-21.653 4.509l-302.127 129.948v-179.427c0-146.959 220.338-191.068 289.236-191.068h69.052c51.605 0 289.253 44.11 289.253 191.068v179.427l-302.145-129.948c-6.922-2.982-14.19-4.508-21.616-4.508z"  horiz-adv-x="1024" />

    
    <glyph glyph-name="icon116" unicode="&#58919;" d="M1016.774758 746.665039l0.661316 0L7.330605 746.665039l0.65155 0L1016.774758 746.665039 1016.774758 746.665039zM512.544335 192.304687l-33.283691 30.932617-111.003998 99.57666-320.532227-301.479004 929.323853 0-320.308594 301.498535L545.8182 221.465332 512.544335 192.304687 512.544335 192.304687zM0.000741 661.967773l0-583.143555 313.700928 291.571777L0.000741 661.967773 0.000741 661.967773zM1024.00071 78.906738l0 582.960938-313.400696-291.47168L1024.00071 78.906738 1024.00071 78.906738zM512.532536 277.694336l504.242218 468.970703L7.982155 746.665039 512.532536 277.694336 512.532536 277.694336zM512.532536 277.694336"  horiz-adv-x="1025" />

    
    <glyph glyph-name="nan" unicode="&#58900;" d="M716.949 778.701c9.811-39.438 10.774-42.716 9.865-83.225-0.364-15.618-9.319-87.806-6.899-109.956 2.007-18.249 6.561-19.706 13.77-34.753 12.521-26.185 8.327-62.291 3.513-88.715-2.629-14.449-8.199-35.009-16.657-46.804-9.317-13.015-27.984-13.094-36.205-28.27-11.898-21.841-5.184-52.508-12.683-76.090-8.516-26.734-30.194-28.61-31.813-63.621 10.62-1.486 21.214-3.020 31.813-4.528 10.647-22.596 30.116-68.101 50.007-81.794 16.659-4.554 33.319-9.109 49.979-13.638 58.417-23.949 123.282-52.582 181.806-77.262 53.314-22.491 117.090-30.508 136.351-86.37 0-37.933 3.595-127.533 2.608-177.274h-1160.801c-0.987 49.748 2.579 139.349 2.579 177.274 19.262 55.861 83.069 63.879 136.351 86.37 58.517 24.681 123.419 53.313 181.806 77.262 16.658 4.528 33.346 9.087 50.007 13.638 19.889 13.695 39.358 59.195 49.979 81.794l23.659 5.727c-5.363 29.884-23.873 32.223-31.572 53.363-3.020 31.813-6.041 63.647-9.061 95.433 0.107-1.486-21.76 4.009-24.651 5.803-30.851 19.343-31.473 97.905-34.441 130.549-1.354 14.944 19.389 27.178 13.615 54.562-33.819 160.305 14.656 235.327 91.241 260.21 53.157 21.554 152.495 61.489 245.113 4.53l22.959-21.296 37.202-6.428c18.66-10.775 30.562-46.494 30.562-46.494z"  horiz-adv-x="1024" />

    
    <glyph glyph-name="wenjianjia" unicode="&#59036;" d="M861.04-7.895c0-30.91-25.074-55.877-55.924-55.877H106.413l97.848 461.131c0 30.88 24.92 55.907 55.77 55.907H902.96c30.856 0 55.829-25.027 55.829-55.907L861.04-7.895zM218.163 495.208h628.87v54.891c0 30.88-25.076 55.906-55.877 55.906H455.788v50.659c0 30.827-25.027 55.878-55.878 55.878H120.367c-30.855 0-55.877-25.05-55.877-55.878v-664.559l97.747 447.176c0 30.881 25.074 55.927 55.925 55.927z m0 0"  horiz-adv-x="1024" />

    
    <glyph glyph-name="shuji" unicode="&#58892;" d="M367.269161 103.985548c0-12.007226-9.909677-21.834323-21.966451-21.834322h-94.42271c-12.07329 0-21.966452 9.843613-21.966452 21.834322v457.694968a21.966452 21.966452 0 0 0 21.966452 21.834323h94.42271c12.056774 0 21.966452-9.843613 21.966451-21.834323v-457.694968m-23.667613 432.128a21.966452 21.966452 0 0 1-21.949935 21.834323h-46.88929a21.966452 21.966452 0 0 1-21.949936-21.834323v-2.526967c0-12.007226 9.909677-21.834323 21.949936-21.834323h46.88929a21.966452 21.966452 0 0 1 21.949935 21.834323v2.526967m66.824258 135.366194c0 12.023742 9.909677 21.834323 21.966452 21.834323h93.349161c12.056774 0 21.949935-9.827097 21.949936-21.834323v-567.461161a21.966452 21.966452 0 0 0-21.949936-21.834323h-93.349161c-12.056774 0-21.966452 9.843613-21.966452 21.834323v567.461161m117.000259-23.502452c0 12.007226-9.909677 21.834323-21.949936 21.834323h-49.812645c-12.056774 0-21.966452-9.827097-21.966452-21.834323v-3.996903c0-12.023742 9.909677-21.834323 21.966452-21.834322h49.812645a21.966452 21.966452 0 0 1 21.949936 21.834322v3.996903m311.246451-503.874064a21.867355 21.867355 0 0 0-14.104774-27.532387l-89.781677-29.084904a22.098581 22.098581 0 0 0-27.730581 14.022194l-142.649807 435.183484a21.867355 21.867355 0 0 0 14.104775 27.532387l89.814709 29.084903a22.049032 22.049032 0 0 0 27.681033-14.022193l142.666322-435.183484m-157.200516 403.588129a22.115097 22.115097 0 0 1-27.714065 14.022193l-44.544-14.41858a21.916903 21.916903 0 0 1-14.088258-27.532387l0.792775-2.394839c3.732645-11.429161 16.185806-17.721806 27.697548-14.022194l44.560516 14.418581a21.883871 21.883871 0 0 1 14.071742 27.532387l-0.776258 2.394839"  horiz-adv-x="1024" />

    
    <glyph glyph-name="tubiaozhizuomoban-copy" unicode="&#58893;" d="M513.633 618.733c-181.308 0-328.306-149.329-328.306-333.542 0-184.21 146.999-333.539 328.306-333.539 181.36 0 328.338 149.329 328.338 333.539 0 184.213-146.974 333.542-328.338 333.542zM682.479 314.952l-64.732-64.108 15.271-90.519c5.139-30.388-11.955-43.678-39.342-29.052l-80.037 42.745-79.997-42.745c-26.854-14.345-44.582-1.947-39.351 29.052l15.281 90.519-64.729 64.108c-21.737 21.516-15.6 42.455 15.039 46.984l89.454 13.209 40.003 82.345c13.431 27.658 34.957 28.207 48.647 0l40.016-82.345 89.451-13.209c30.022-4.431 37.189-25.046 15.026-46.984zM820.57 811.019h-203.004c-10.964 0-19.736-7.781-22.317-18.097l-62.573-125.355s133.988-8.203 213.146-85.619l93.464 191.596c2.77 3.929 4.749 8.461 4.749 13.652 0 13.158-10.514 23.823-23.465 23.823zM491.322 667.561l-62.572 125.356c-2.581 10.321-11.375 18.098-22.318 18.098h-203.014c-12.952 0-23.453-10.66-23.453-23.824 0-5.191 1.969-9.729 4.75-13.652l93.463-191.598c79.154 77.422 213.144 85.62 213.144 85.62zM185.327 285.191c0-178.329 137.763-323.964 311.049-333.082l40.010 209.761-22.747 12.148-79.997-42.745c-26.854-14.345-44.582-1.947-39.351 29.052l15.281 90.519-64.729 64.108c-21.737 21.516-15.6 42.455 15.039 46.984l89.454 13.209 40.003 82.345c13.431 27.658 34.957 28.207 48.647 0l39.347-80.966 42.777 224.27c-33.39 11.621-69.204 17.939-106.477 17.939-181.308 0-328.306-149.329-328.306-333.542zM278.178 581.941c79.154 77.422 213.144 85.62 213.144 85.62l-62.572 125.356c-2.581 10.321-11.375 18.098-22.318 18.098h-203.014c-12.952 0-23.453-10.66-23.453-23.824 0-5.191 1.969-9.729 4.75-13.652l93.463-191.598zM595.249 792.922l-62.573-125.355s43.986-2.7 96.44-19.559l31.094 163.011h-42.644c-10.963 0-19.736-7.781-22.317-18.097z"  horiz-adv-x="1024" />

    
    <glyph glyph-name="tuding" unicode="&#58992;" d="M467.2 275.2h89.6c-6.4-83.2-12.8-204.8-19.2-224-6.4-57.6-25.6-96-25.6-96s-19.2 38.4-25.6 96c-6.4 25.6-12.8 147.2-19.2 224z m166.4 531.2H396.8c-25.6 0-44.8-19.2-44.8-44.8 0-25.6 19.2-44.8 44.8-44.8h19.2l-57.6-300.8H281.6c-25.6 0-44.8-19.2-44.8-44.8 0-25.6 19.2-44.8 44.8-44.8h454.4c25.6 0 44.8 19.2 44.8 44.8 0 25.6-19.2 44.8-44.8 44.8h-76.8l-44.8 300.8h19.2c25.6 0 44.8 19.2 44.8 44.8 0 25.6-19.2 44.8-44.8 44.8z"  horiz-adv-x="1024" />

    
    <glyph glyph-name="fengche" unicode="&#59011;" d="M116.867747 401.217148H531.776876c41.99873 0 76.045059 34.046329 76.045059 76.046881V650.468263H447.120056c-122.5646 0-241.770467-125.854118-330.252309-249.251115zM646.084895 896v-414.910951c0-41.99873 34.046329-76.045059 76.046881-76.045059h173.204234V565.74587c0 122.5646-125.854118 241.772288-249.251115 330.25413zM1140.865926 366.781031H725.956797c-41.99873 0-76.045059-34.048151-76.04506-76.046881v-173.204234h160.70188c122.5646 0 241.772288 125.854118 330.252309 249.251115zM611.648778-128V286.909129c0 41.99873-34.046329 76.045059-76.046881 76.045059H362.397663v-160.70188c0-122.562778 125.854118-241.770467 249.251115-330.252308z"  horiz-adv-x="1450" />

    
    <glyph glyph-name="qushitu" unicode="&#58896;" d="M896 640v-512H128V640h768m14.36 64H113.64A49.64 49.64 0 0 1 64 654.36v-540.72A49.64 49.64 0 0 1 113.64 64h796.72A49.64 49.64 0 0 1 960 113.64V654.36A49.64 49.64 0 0 1 910.36 704zM504.51 208.67l-119 185.74a1.58 1.58 0 0 1-2.75-0.17L327.54 278.9a10.76 10.76 0 0 0-17.71-2.55L241.75 352h-66.92A14.83 14.83 0 0 0 160 366.83v34.34A14.83 14.83 0 0 0 174.83 416h95.42l36.35-40.39 69.81 128.8a9.31 9.31 0 0 0 16.07 0.52l119.09-189.24 149.85 258.64a10.24 10.24 0 0 0 17 0.72l107-159h63.75A14.83 14.83 0 0 0 864 401.17v-34.33A14.83 14.83 0 0 0 849.17 352h-95.44L672 473.6 520.21 208.76a9.29 9.29 0 0 0-15.7-0.09z"  horiz-adv-x="1024" />

    
    <glyph glyph-name="renminbi" unicode="&#58897;" d="M758.91 722.564L575.932 411.271h144.179v-68.779H552.123v-94.785h167.988v-69.65H552.123v-138.009h-86.417V178.056H291.548v69.651h174.158v94.785H291.548v68.779h148.603L258.92 722.564h97.433c84.671-154.623 136.082-252.659 154.323-294.106h1.776c6.17 17.036 23.086 51.44 50.718 103.182l103.604 190.924h92.136z"  horiz-adv-x="1024" />

    
    <glyph glyph-name="ic_directions_car_px" unicode="&#59144;" d="M807.253333 639.573333A64.149333 64.149333 0 0 1 746.666667 682.666667H277.333333c-27.946667 0-51.84-17.92-60.586666-43.093334L128 384v-341.333333c0-23.466667 19.2-42.666667 42.666667-42.666667h42.666666a42.666667 42.666667 0 0 1 42.666667 42.666667v42.666666h512v-42.666666c0-23.466667 19.2-42.666667 42.666667-42.666667h42.666666a42.666667 42.666667 0 0 1 42.666667 42.666667V384l-88.746667 255.573333zM277.333333 213.333333c-35.413333 0-64 28.586667-64 64s28.586667 64 64 64 64-28.586667 64-64-28.586667-64-64-64z m469.333334 0c-35.413333 0-64 28.586667-64 64s28.586667 64 64 64 64-28.586667 64-64-28.586667-64-64-64zM213.333333 426.666667l64 192h469.333334l64-192H213.333333z"  horiz-adv-x="1024" />

    
    <glyph glyph-name="student" unicode="&#58914;" d="M260.322 411.118s-15.862-15.985-34.663-15.985c-18.801 0-34.669 15.985-34.669 15.985 0 57.882 17.324 127.375 23.555 150.91-5.565 3.607-9.158 9.817-9.158 17.012 0 9.486 6.543 17.326 15.207 19.614v38.431l10.133-6.060v-32.369c8.661-2.291 15.207-10.131 15.207-19.617 0-7.193-3.765-13.402-9.331-17.009 4.096-15.049 12.755-49.049 18.317-86.83 3.285-21.075 5.402-43.316 5.402-64.083zM711.615 424.132c-0.953 12.073-8.313 24.819-23.869 24.677-0.809 0-1.617 0.401-2.963 0.805l-1.201 3.361s1.073 10.466 1.349 16.081c0.95 18.238 2.277 36.332 3.356 54.438 0.543 7.649 1.472 15.278 2.015 22.929l-45.99 12.073c-1.75 0.803-21.334 3.744-21.334 3.744-10.245 1.57-74.353 7.55-134.701 7.954-47.893 0.32-93.798-4.49-105.846-6.324-3.651-0.601-11.824-2.326-12.198-2.414 0 0-34.999-7.651-48.404-12.745l-12.474-4.689c0.404-17.285 2.004-34.86 2.951-52.282 0.667-14.091 2.015-28.301 3.219-42.369-1.346-0.401-2.146-0.805-2.949-0.805-15.685 0.145-22.927-12.596-23.991-24.672-0.541-7.908-0.805-16.083 0.14-24.009 2.556-22.927 9.783-44.116 23.869-62.611 7.769-10.063 13.948-11.677 25.196-7.515 3.905-0.901 11.987-19.664 13.702-23.363 15.838-34.002 41.093-76.030 88.638-93.637 32.637-12.069 68.969-16.002 102.777-6.507 36.026 10.128 64.479 35.799 86.341 65.396 20.188 27.020 26.859 44.188 30.204 51.41 1.467 3.077 1.467 5.892 4.683 6.438 2.561 0.404 6.169-1.754 8.976-1.614 6.302 0.546 10.865 4.973 14.481 9.79 14.213 18.372 21.446 39.684 24.009 62.485 0.811 7.872 0.679 16.062 0.016 23.97zM657.525 472.855c-1.756-34.688-7.217-80.847-12.624-104.618-6.501-28.588-54.335-142.576-149.534-140.069-15.577 0.466-30.277 3.665-43.819 9.131-47.874 15.978-74.198 60.346-94.443 122.651-8.853 27.184-13.156 57.421-13.156 92.659-0.155 7.402-0.608 14.467-1.354 21.445 6.777-11.729 12.625-11.792 18.447-11.792 39.404 0 73.725 2.603 104.929 7.979 10.879 1.895 23.722 4.271 36.747 7.469 39.133 9.697 69.739 23.995 95.603 44.676 13.65-16.064 31.621-28.036 57.431-38.357 0.74-0.327 1.523-0.63 2.297-0.959l-0.525-10.215zM685.504 625.132c0 0.262-0.133 0.404-0.133 0.541-0.672 12.479 0.399 6.48-2.965 18.691-1.609 6.436-3.356 10.729-8.847 14.213-6.438 4.287-12.736 8.574-19.708 11.936-17.163 8.714-35.119 14.489-54.16 18.495-41.156 8.451-82.592 10.466-124.161 8.855-17.429-0.669-34.737-1.876-52.028-4.429-29.098-4.285-57.524-11.387-83.525-26.004-9.659-5.491-16.624-8.976-19.44-20.245-6.442-26.547-6.041-49.931-6.841-77.019 0-0.803 0-1.605 0.133-2.409 16.086 6.035 33.915 10.464 51.219 13.541 11.348 2.919 24.455 4.763 37.94 5.101 9.801 2.949 42.915 4.421 76.437 4.298 31.119-0.262 62.212 0.399 93.184-1.349 22.806-1.207 45.586-5.235 68.109-8.572 5.237-0.803 10.464-1.614 15.278-3.621l30.567-8.055v0.265c-0.259 13.146-0.399 42.634-1.071 55.774l0.011-0.009zM818.165 674.256c-36.209-20.791-113.713-65.574-113.713-65.574s-0.284 6.841-0.284 9.254c-0.14 9.524-0.259 20.393-3.219 31.518-2.419 9.118-6.155 18.637-17.419 26.006 0 0-14.877 9.781-21.723 13.142-17.837 8.859-37.277 15.418-59.133 20.109-32.038 6.559-65.574 9.781-102.444 9.781-8.853 0-64.764-2.815-80.585-5.111-37.011-5.494-65.697-14.489-91.308-28.959-10.466-5.754-23.593-13.142-28.298-32.582-3.077-12.337-4.694-27.091-5.5-42.101 0 0-95.754 55.242-112.517 64.906 7.509 4.686 13.004 8.313 18.64 11.534 95.197 53.63 190.535 107.132 285.467 161.169 10.319 5.754 17.97 5.754 28.301-0.142 96.54-54.965 193.476-109.281 290.155-163.845 4.203-2.261 8.089-5.204 13.58-9.104zM806.401 104.030c-48.186 31.725-164.78 72.571-166.844 73.042-0.469-0.791-28.522-59.103-39.936-82.884-7.772-16.165-21.387-17.261-31.525-2.687-8.405 12.351-29.966 43.882-32.325 47.388-6.65 9.5-13.478 10.156-21.548 1.908-1.253-1.259-11.63-10.671-15.082-10.732-3.449 0.058-13.825 9.473-15.087 10.732-8.085 8.241-13.637 8.983-21.539-1.908-7.903-10.89-22.905-32.129-30.848-42.604-16.9-21.485-32.929-17.67-40.491 0-11.81 27.594-31.979 79.995-32.454 80.787-2.062-0.467-118.793-41.124-166.835-73.042-109.284-68.873-106.349-186.119-106.349-186.119h838.631c0.014-1.652 13.489 99.213-117.769 186.119z"  horiz-adv-x="1024" />

    
    <glyph glyph-name="shijian" unicode="&#59345;" d="M901.823 547.653c-21.285 50.354-51.814 95.6-90.736 134.522-38.8 38.8-84.167 69.329-134.522 90.736-52.18 22.015-107.642 33.326-164.687 33.326-57.166 0-112.507-11.19-164.686-33.326-50.355-21.285-95.601-51.814-134.523-90.736-38.8-38.8-69.328-84.168-90.735-134.522-22.015-52.18-33.205-107.643-33.205-164.687s11.19-112.507 33.326-164.686c21.286-50.355 51.815-95.601 90.736-134.523 38.8-38.8 84.168-69.329 134.522-90.736 52.18-22.136 107.643-33.326 164.687-33.326 57.166 0 112.507 11.19 164.687 33.326 50.354 21.286 95.6 51.815 134.522 90.736 38.8 38.8 69.329 84.168 90.736 134.523 22.136 52.179 33.326 107.642 33.326 164.686s-11.433 112.508-33.448 164.687z m-111.17-189.62H511.879c-13.744 0-24.934 11.189-24.934 24.933 0 2.068 0.244 4.014 0.73 5.96a24.238 24.238 0 0 0-0.73 5.96V661.74c0 13.744 11.19 24.934 24.934 24.934 13.745 0 24.934-11.19 24.934-24.934V407.78h253.963c13.744 0 24.934-11.19 24.934-24.934-0.121-13.623-11.311-24.813-25.055-24.813z m0 0"  horiz-adv-x="1024" />

    
    <glyph glyph-name="wenjianjia1" unicode="&#58898;" d="M411.712 785.088h-300.8C55.744 785.088 10.624 739.968 10.624 684.8v-601.6c0-55.104 45.12-100.288 100.288-100.288h802.24c55.04 0 100.224 45.184 100.224 100.288V584.576c0 55.168-45.184 100.224-100.224 100.224H512L411.712 785.088z"  horiz-adv-x="1024" />

    
    <glyph glyph-name="chuan" unicode="&#59339;" d="M908.726857 79.433143c-5.705143 5.412571-13.604571 8.338286-21.504 8.045714-47.396571-2.340571-74.752-15.652571-98.742857-27.355428l-0.292571-0.146286c-24.137143-11.702857-44.909714-21.942857-89.380572-21.942857-44.178286 0-65.097143 10.093714-89.234286 21.796571h-0.146285c-26.770286 13.019429-57.197714 27.940571-114.980572 27.940572-57.636571 0-88.064-14.774857-114.834285-27.794286l-0.292572-0.146286c-24.137143-11.702857-44.909714-21.942857-89.380571-21.942857-44.178286 0-65.097143 10.093714-89.234286 21.796571l-0.146286 0.146286c-24.137143 11.702857-51.346286 25.161143-99.035428 27.501714-7.899429 0.438857-15.798857-2.486857-21.504-8.045714-5.851429-5.558857-9.069714-13.312-9.069715-21.211428 0-15.652571 12.141714-28.379429 27.648-29.257143 35.547429-1.755429 54.418286-10.971429 76.068572-21.504l0.146286-0.146286c26.770286-13.019429 57.197714-27.940571 114.980571-27.940571 57.636571 0 88.064 14.774857 114.834286 27.794285l0.292571 0.146286c24.137143 11.702857 44.909714 21.942857 89.380572 21.942857 44.178286 0 65.097143-10.093714 89.234285-21.796571l0.146286-0.146286c26.770286-13.019429 57.197714-27.940571 114.980571-27.940571 57.636571 0 88.064 14.774857 114.834286 27.794285l0.292572 0.146286c21.796571 10.678857 40.521143 19.748571 76.214857 21.650286 15.506286 0.731429 27.648 13.604571 27.648 29.257143 0.146286 8.192-3.218286 15.945143-8.923429 21.357714zM242.834286 72.996571c12.580571-3.510857 27.209143-5.705143 47.250285-5.705142 40.96 0 59.538286 9.069714 82.944 20.48s49.298286 23.990857 92.452572 28.086857c-0.146286 1.170286-0.292571 2.486857-0.292572 3.803428V472.649143c0 16.091429 13.165714 29.257143 29.257143 29.257143s29.257143-13.165714 29.257143-29.257143v-353.133714c0-1.316571-0.146286-2.486857-0.292571-3.657143 43.008-3.949714 69.046857-16.676571 92.452571-28.086857s41.984-20.48 82.944-20.48c20.041143 0 34.816 2.194286 47.250286 5.705142l99.328 287.305143c6.729143 19.309714-1.609143 40.521143-19.602286 50.176l-54.710857 29.403429V613.814857c0 19.163429-7.606857 36.717714-19.894857 49.590857-2.486857 2.925714-5.266286 5.412571-8.484572 7.460572-11.995429 9.216-27.062857 14.628571-43.300571 14.628571h-47.689143v57.051429c0 15.36-12.434286 27.648-27.648 27.648H364.836571c-15.36 0-27.648-12.434286-27.648-27.648v-57.051429h-52.224c-39.497143 0-71.68-32.182857-71.68-71.68v-176.274286l-50.176-27.062857c-17.993143-9.654857-26.185143-30.866286-19.602285-50.176L242.834286 72.996571z m271.36 505.270858c-12.288 6.582857-27.062857 6.582857-39.350857 0l-205.970286-110.884572V613.814857c0 8.923429 7.168 16.091429 16.091428 16.091429h414.573715c8.923429 0 16.091429-7.168 16.091428-16.091429v-143.945143l-201.435428 108.397715z"  horiz-adv-x="1024" />

    
    <glyph glyph-name="douban" unicode="&#59030;" d="M335.17568 519.12704h325.79584v-135.41376H335.17568zM512.28672 895.26272C229.74464 895.26272 0.69632 666.29632 0.69632 384c0-282.37824 229.04832-511.26272 511.5904-511.26272 282.54208 0 511.5904 228.88448 511.5904 511.26272 0 282.33728-229.04832 511.26272-511.5904 511.26272zM225.81248 708.68992H795.0336v-51.8144H225.81248V708.68992z m517.48864-133.03808v-243.712H254.03392v243.712h489.2672z m51.73248-463.91296H197.59104v53.00224h187.31008c-16.30208 56.5248-37.56032 76.8-63.8976 116.3264l63.8976 22.36416c25.35424-37.4784 47.9232-82.16576 67.9936-138.69056h120.87296c23.9616 56.5248 44.97408 92.03712 63.0784 141.59872l69.4272-28.22144c-18.14528-41.7792-37.76512-56.85248-58.53184-113.37728h147.29216v-53.00224z"  horiz-adv-x="1024" />

    
    <glyph glyph-name="nv" unicode="&#58894;" d="M612.744 527.606s-27.787 1.575-29.194-29.194c0 0 0.45-27.675 29.194-29.306 0 0 26.831 0.675 29.306 29.306 0 0-3.656 27.788-29.306 29.194z m-175.95 0s-28.856-2.25-29.306-29.194c0 0-3.431-27.675 29.306-29.306 0 0 24.806-2.25 29.194 29.306 0 0-0.45 25.875-29.194 29.194z m-34.425-300.262S229.4 144.938 209.713-62.569h283.838L402.37 227.344zM542.15-62.569h297.619S816.763 150.506 647 227.344L542.15-62.569zM802.7 142.744s-89.831 152.269-292.781 149.175c0 0-181.462 4.275-271.575-160.875l-0.225 388.969S210.05 797.607 510.144 830.569c0 0 286.313 1.8 292.556-289.294v-398.531z m-63.506 403.819s-198.506-17.662-327.712 82.125c-129.319 99.563 0 0 0 0s-72.45-72.9-108.45-83.194c-35.775-10.35 0 0 0 0s-12.15-191.588 210.15-219.15c222.469-27.675 0 0 0 0s202.838-14.906 226.012 217.744c23.175 232.762 0 0 0 0m-126.45-16.482s-27.787-0.788-29.194-29.194c-1.237-28.519 0 0 0 0s1.35-27 29.194-29.306 2.475 0.225 2.475 0.225 26.381 5.119 26.831 29.081c0.619 23.85 0 0 0 0s-2.475 28.631-29.306 29.194c-26.606 0.731 0-2.25 0-2.25m-175.95 2.25s-25.763 0.338-29.306-29.194c-3.431-29.588 0 0 0 0s1.575-30.994 29.306-29.25c27.563 1.687 0 0 0 0s25.875-1.688 29.194 29.306c3.544 30.881 0 0 0 0s-2.531 28.575-29.194 29.138c-26.775 0.675 0 0 0 0z"  horiz-adv-x="1024" />

    
    <glyph glyph-name="f" unicode="&#58899;" d="M63.96 10.804c0-41.208 33.378-74.586 74.587-74.586H884.43c41.21 0 74.588 33.378 74.588 74.586V756.688c0 41.209-33.378 74.588-74.588 74.588H138.547c-41.21 0-74.587-33.38-74.587-74.588v-745.884zM530.135 48.1V346.453h-74.588V458.334h74.588c0 192.255 8.203 205.12 242.411 205.12v-111.885c-123.445 0-111.882-6.9-111.882-93.235h111.882v-111.88H660.664V48.1H530.135z"  horiz-adv-x="1024" />

    
    <glyph glyph-name="diqiu" unicode="&#58912;" d="M504.61696 460.61568c0.0512 0.0768 0.11776 0.13824 0.16384 0.21504a28.34944 28.34944 0 0 0-0.39936 2.17088c0.08192-0.7936 0.16896-1.5872 0.23552-2.38592z m169.41056-184.9856c0.01024 0 0.01024 0.01024 0.01024 0.01536-0.0256 0.01024-0.1024 0.01024-0.11776 0.03584 0.0256-0.0256 0.08704-0.0256 0.10752-0.0512z m4.34176-0.5376c-1.0496 0.16896-3.40992-0.13824-4.34176 0.5376-0.57344-1.98144 0.29184-2.72896 4.34176-0.5376z m-165.0176 551.7056c-243.61472 0-441.09824-197.4784-441.09824-441.09312 0-243.61472 197.48352-441.10336 441.09824-441.10336 243.6096 0 441.09824 197.48864 441.09824 441.10336s-197.48864 441.09312-441.09824 441.09312z m281.74336-172.30848c-15.19616-0.4608-25.77408-0.49152-37.98528-8.91904-4.92032-3.39968-8.25856-7.90528-14.50496-9.65632-5.60128-1.57696-11.64288-0.19456-17.19296-2.07872-20.03968-6.79936-16.8704-49.72544-43.27424-43.24352-12.40576 3.04128-21.1456 17.70496-27.392 27.27424-5.49888 8.4224-15.5136 15.3856-8.75008 25.92256-3.08736-0.78848-6.3744 0.11264-9.41568-0.46592 4.22912 9.28768 18.42176 8.4736 20.78208 13.22496 5.87776 11.89888-16.18432 13.13792-22.43072 14.79168 7.53152 8.02304 11.3408-2.69824 18.76992-0.88064 7.14752 1.76128-3.7632 11.16672-8.04864 12.22144-1.54112 0.384-26.69056-6.94784-12.12928 6.07744l-53.9136 34.37568c-3.02592-12.7488 23.92064-19.98848 32.72704-24.48384-1.37216-5.26336-9.55904-12.928-15.83104-10.68032-5.89824 2.11968-3.50208 11.904-12.42112 10.91584-6.36416-14.80192 13.46048-10.47552 15.29856-19.54304 2.09408-10.33216-7.49056-5.95456-11.18208-5.77536-0.88064 0.04608-7.75168 7.15776-8.12032 1.77664-0.45056-6.4 10.96192-3.90144 11.76064-10.35776-13.28128-0.5376-20.0704 4.25984-30.87872 11.4432-12.63104 8.38144-19.10272 7.62368-34.57024 7.62368 4.62336 1.90464 10.99264 3.30752 14.9504 6.36928 2.16064 1.66912 10.63936 9.91232 11.20256 11.7504 2.39616 7.94112-0.128 7.33696-7.72608 12.53888-6.75328 4.61824-14.94016 12.90752-23.12192 14.5408-29.63968 5.91872-9.14432-26.76224-31.6416-31.26272 0.384-0.02048 0.79872-0.03584 1.13152-0.03584h-1.29024c0.05632 0.00512 0.10752 0.0256 0.15872 0.03584-5.20704 0.18944-14.96064 1.45408-18.31424-1.29536-2.36544-1.93024-2.56512-9.69728-5.21216-12.50816-4.7104-5.0176-11.72992-6.02112-17.35168-9.64096-5.48864-3.53792-17.58208-12.61056-20.80256-18.76992-11.87328-22.68672 26.752-29.72672 41.3952-36.35712 6.61504-2.9952 25.95328-7.10144 29.55264-12.1088 4.83328-6.72256-4.16256-13.02528 5.92384-17.75104 3.22048-1.50528 9.86112-1.81248 12.64128 1.3056 4.5056 5.07904-1.83296 6.22592-2.91328 12.09344-2.08896 11.29984 1.3568 6.8096 7.03488 11.008 11.58144 8.5504 8.97536 9.07264 4.80768 22.69696-1.93536 6.34368-9.23648 24.04352-2.816 28.7232 8.37632 6.10816 26.22464-3.30752 32.64512-4.096 7.47008-0.91648 11.70944-11.26912 15.77984-15.49824 2.70848-2.81088 7.54688-8.77568 12.26752-8.13056 7.5008 1.024 4.36224 7.5776 8.70912 10.60352 11.66336 8.09472 14.74048-2.89792 19.38944-13.89568 4.37248-10.32704 8.50944-14.1568 16.30208-20.78208 3.61472-3.08224 19.46112-14.08512 17.96608-20.86912-1.01376-4.56704-19.11296-11.49952-23.95648-13.0304-17.69472-5.60128-50.88768 9.17504-54.4512-18.88256 6.8608 2.56 26.38848 18.5088 32.24576 10.95168 2.67264-3.4304-2.11456-8.42752-0.98816-11.83744 3.33824-10.2144 11.2128-6.656 19.4816-5.00736-0.5632-0.34816-1.14688-0.65536-1.75104-0.93184 11.28448 5.80096 10.11712 4.59264 15.29344 13.99808 1.6896 3.072 4.1984 10.51136 6.58432 12.71296 8.20736 7.54688 9.46688 2.35008 14.55104-3.47136 1.3312-1.536 13.89568-19.62496 9.42592-18.72384-14.6176 2.92864-28.65152 2.53952-40.77056-5.4528-6.9888-4.61312-13.58848-10.83904-21.93408-13.9008-1.9968-0.73216-16.80384-2.13504-15.0528 0.38912 2.56 3.68128 11.35104 6.1184 14.8224 10.09152-9.62048 3.95776-17.6384-4.7872-25.1904-9.89696-8.01792-3.79392-9.88672-10.86464-16.71168-17.05984-2.97984-2.70336-8.62208-3.16416-11.5456-6.72256-2.83648-3.45088-3.19488-8.87808-5.87776-12.15488-1.88416-2.29376-6.72256-0.90624-8.69376-4.36736-2.56512-4.51584 2.35008-8.70912 1.26976-11.96544-1.9712-5.9136-13.21984-10.92608-17.54112-15.18592 0.57344 0.55296 1.152 1.1264 1.7152 1.70496-4.33664-4.54656-9.82016-7.88992-13.20448-13.15328 1.55136-7.42912 6.4512-25.14944 5.08416-29.22496-4.5056-13.40928-13.2608 7.296-16.81408 12.6464-12.20096 18.3808-36.58752 6.08256-53.24288 4.5568-21.30432-1.9456-42.16832-29.5936-29.02528-52.03968 6.30784-10.76224 16.91648-14.92992 29.09184-12.43648 10.83392 2.21696 14.08512 17.37216 24.28928 17.64864 18.74432 0.50176 0.41472-18.37056-1.20832-25.2928-1.50016-6.42048 2.33984-7.00928 8.93952-8.6016 4.87936-1.17248 11.78112 2.08384 16.00512-0.70144 2.6624-1.76128 2.5344-11.38176 6.1952-8.3456-7.20896-5.97504-5.52448-20.1472 1.8688-25.27232 8.19712-5.6832 17.84832-0.41984 26.42432-2.60608 16.19968-4.13184 8.46848 1.23904 22.70208 9.8304 9.6 5.78048 11.17696-1.09568 17.7408-1.12128 4.46464-0.02048 7.30112 6.42048 14.7712 4.55168 6.08768-1.54112 8.48896-6.24128 15.75936-7.3216 2.97984-0.44032 6.06208 1.12128 8.89856 0.80896 13.44-1.48992 23.73632-10.08128 34.3296-17.84832 8.7296-6.38976 14.51008-5.09952 24.70912-8.00768 7.4496-2.1248 21.1968-12.90752 20.49024-22.36928-0.12288-1.69472-6.64064-10.20928-7.75168-14.03904 1.90976-1.32096 15.16544 1.6384 19.0464 1.92-1.27488-1.4848-10.30656-7.82848-10.30656-4.45952 0-1.73056 6.38976-5.26848 7.94624-6.3744 4.7104 15.28832 12.44672 5.4528 21.75488 1.664 7.91552-3.22048 17.65888-3.39968 26.10176-5.41184 7.168-1.70496 22.96832-6.53824 28.27776-12.40064 6.38976-7.05024 1.9712-18.49856-2.75968-25.50784-6.17984-9.20064-15.50848-12.72832-19.36896-23.552-3.05152-8.57088-0.75776-17.2288-2.50368-26.74176-2.3552-12.86144-4.24448-8.35072-12.52864-16.19968-6.96832-6.60992-0.11264-5.46304-9.60512-9.68192-9.53856-4.23424-17.93024-2.9696-24.52992-13.42976 0.26112 0.65024 0.48128 1.31072 0.66048 2.00192-2.78016-3.89632-4.17792-11.8784-5.49376-14.49984-3.328-6.6816-7.92064-10.89024-13.184-16.4608-2.01728-2.12992-20.56192-27.46368-21.632-25.43104-1.3824 2.65216-16-2.6624-16.69632 1.12128 0.58368-3.1744-0.13312-2.10944 3.49696-3.9424-3.36384-20.81792-12.17024-23.92576-32.6144-24.13568 1.75616-10.00448-7.40352-8.00768-11.66848-13.3888-2.48832-3.14368-3.68128-11.97568-5.40672-16.04608-1.08032-2.54976-9.0624-12.78976-9.0624-14.8224-0.01024-1.8688 2.68288-4.608 5.21216-7.22944a389.632 389.632 0 0 0-44.04224-6.05696c2.79552 3.52256 3.46624 6.61504-5.43744 7.03488 2.38592 6.4768 7.97696 10.16832 10.34752 16.4352 1.1264 2.95424 0.19456 4.12672 1.14688 7.05536 3.25632 10.12224 1.8432 6.2976 0.00512 14.16192-4.3008 18.41664 1.53088 23.4496 6.54848 40.30976 5.15584 17.3312 4.67968 39.78752 7.98208 58.45504 1.56672 8.9344 4.13184 27.51488 1.02912 35.95776-3.49696 9.50272-18.87232 16.99328-25.91232 23.38816-9.96864 9.08288-15.26784 18.8928-22.67136 30.12608-3.75808 5.69856-8.04352 11.29472-10.97216 17.48992-6.272 13.2608 0.00512 5.37088 1.05984 13.18912 1.01376 7.56224-0.90112 14.32064 2.10432 22.25152 3.31776 8.77056 11.60704 14.23872 14.33088 23.08608 2.45248 7.87456 0.57856 17.77152-7.50592 20.39296-4.5056 1.46944-9.48224-1.92-14.00832-1.17248-6.31808 1.01888-13.4656 5.73952-18.42176 9.50272-6.92224 5.2736-9.51296 13.83424-16.88064 18.83648-6.1696 4.16768-10.55744 1.67424-17.15712 3.61984-6.88128 2.02752-11.13088 10.5216-16.68096 13.17888-8.33024 3.98336-13.02528-1.7408-21.82144-0.57856-7.4752 0.97792-18.88256 9.27232-25.87136 12.39552-14.208 6.35904-22.8608 13.37856-28.544 27.8016-4.864 12.36992-11.96032 18.13504-20.31104 28.43648-8.46336 10.43456-11.1104 19.328-24.15616 22.10816-1.53088 0.3328 3.19488-10.9568 3.68128-11.85792 4.6592-8.63232 11.65824-16.51712 17.29024-24.5504 8.28416-11.83744 4.75648-14.05952-3.67104-2.6112-9.63584 13.09696-20.81792 26.11712-29.17888 39.9872-3.15904 5.23776-2.55488 8.6272-7.76704 13.60384-5.03296 4.80768-11.62752 7.14752-16.69632 11.7248-18.24256 16.4096-21.56032 38.31296-19.4816 61.70624 0.67584 7.62368 3.4304 13.7216 2.21696 21.05344-1.00352 6.08256-4.59776 11.11552-9.08288 15.60064-1.44896 2.304-5.07904 7.98208-5.28896 8.34048-4.14208 6.88128-7.36256 13.64992-13.94688 19.29216-3.77344 3.25632-13.5424 10.8544-22.73792 17.22368 41.32352 51.53792 95.39072 92.38016 157.41952 117.73952 0.49664-3.11808 1.83296-6.23104 3.84-9.21088 5.09952-7.56736 9.9584-6.9632 19.9168-9.0624-1.06496-11.55072-14.57152-11.64288-23.71584-10.3936-10.91584 1.49504-22.39488 5.12-31.8464-4.43904 5.2224-3.13856 19.55328-15.36512 17.64864-2.59072 10.45504 0.52736 20.5568 0.83968 30.78656-0.41472 4.10112-0.50176 17.82784-5.10976 21.55008-3.00544 1.5616 0.88064 3.2256 8.58624 4.87936 10.9568-2.91328-0.01536-6.0416 1.45408-8.94464 1.1776 6.77376 8.66816 13.52192 1.8688 22.13888-2.11968-9.49248-5.76512-3.86048-19.584 5.41696-8.35584 7.62368 9.23648-1.86368 15.92832-11.54048 21.30944 9.75872 12.20608 15.77472 13.30688 24.95488-0.46592 1.5104 8.49408 8.36608 5.0944 15.53408 4.46464v2.1248c-3.15392-0.0768-6.52288 1.7408-9.64608 1.41312 7.30112 11.648 2.64192 14.30528 13.07648 18.10944 8.30976 3.02592 32.01536 0.20992 34.93888 8.01792-16.59392-3.2256-36.63872-3.99872-51.6096-11.54048-6.45632-3.2512-14.14656-13.52192-20.58752-6.84544-6.60992 6.84544 4.72576 17.85856 10.5216 21.21728h-1.38752a390.38976 390.38976 0 0 0 81.34144 8.58112c18.0224 0 35.7376-1.3312 53.12512-3.712-6.02112-3.15904-1.57184-5.29408-5.94944-8.5248-8.3712-6.15424-23.22944-11.2896-33.18784-15.1808 12.66176 0.03072 43.31008-11.87328 49.20832 5.88288l-12.25216 1.88416a107.37664 107.37664 0 0 0 25.06752 12.15488c80.61952-15.9744 152.33024-56.86272 206.88384-114.24256-0.39424 0.01536-0.78336 0.0256-1.15712 0.01536z m71.38816-154.86464c0.72704 1.55136 2.42688 2.05824 3.1232 3.33824 1.46944 2.688 1.14176 4.51072 2.95936 6.81984 1.94048 2.49344 4.56192 3.10272 6.72768 5.05344 0.8704 0.78336 1.36192 1.5104 1.76128 2.2528a387.3536 387.3536 0 0 0 15.46752-56.20736c-0.11264-0.13824-0.1792-0.34816-0.32256-0.4608-0.95232-0.74752-7.13216-1.66912-8.40192-1.71008-4.47488-0.17408-7.80288 2.79552-11.01312 5.59104-3.27168 2.8416-7.12192 6.64064-9.4464 10.3168-2.4832 3.93216-0.95232 7.96672-0.77312 12.45184 0.1536 3.77344-1.67936 9.14944-0.08192 12.55424z m5.04832-202.24512c-7.57248 6.5792-16.512 15.40096-21.89824 23.93088-5.74976 9.088-2.21184 18.44736-1.792 28.86144 0.34816 8.75008-3.92704 21.21216-0.19968 29.10208 1.70496 3.59936 5.62176 4.7872 7.22944 7.73632 3.4304 6.2464 2.66752 10.46528 6.87104 15.83616 4.51072 5.76512 10.57792 7.18336 15.60064 11.70944 5.26336 4.74112 5.12 8.47872 8.448 14.55104 2.44224 4.44416 8.17152 11.84768 13.5936 15.72352 2.944-19.28704 4.47488-39.03488 4.47488-59.12064 0-34.7648-4.62336-68.4544-13.18912-100.55168-7.30112 1.87904-13.312 7.1424-19.13856 12.22144z"  horiz-adv-x="1024" />

    
    <glyph glyph-name="fengche1" unicode="&#59006;" d="M476.16 417.472H221.888c-37.76 0-51.968 26.496-32 58.624L404.48 789.504c39.552 63.744 71.552 54.72 71.552-19.84v-352.192z m1.28-67.776v-254.144c0-37.76-26.56-51.968-58.688-32L105.344 278.08c-63.68 39.552-54.72 71.552 19.84 71.552H477.44z m67.2 0.832h254.144c37.76 0 52.032-26.496 32.064-58.624l-214.656-313.408c-39.488-63.744-71.552-54.72-71.552 19.84V350.528z m1.92 68.672V673.28c0 37.76 26.56 51.968 58.688 32l313.408-214.592c63.68-39.552 54.72-71.552-19.84-71.552H546.56z"  horiz-adv-x="1024" />

    
    <glyph glyph-name="zhengshu" unicode="&#58901;" d="M286.939-127.952c-34.782 0-132.154 70.717-133.082 71.405-3.936 3.040-7.36 5.76-10.32 8.16-21.279-10.847-32.478-15.679-42.878-16.735-1.92-0.192-3.872-0.32-5.824-0.32-28.319 0-51.998 20.351-55.037 47.294-1.6 14.079-7.264 121.114-7.264 127.93l-0.064 1.040c-0.896 20.031-1.6 35.838 10.656 48.126 0.448 0.448 4.8 4.224 12.399 10.352 30.191 24.511 122.122 99.115 173.272 149.193 216.43 210.478 389.806 463.976 506.48 746.832-438.292-663.3-439.316-650.66-433.54-637.861 7.744 17.183 117.147 136.586 133.002 145.177 9.586 5.201 20.987 8.263 33.102 8.272 1.36-0 2.768-0.048 4.16-0.16 26.687 26.655 80.732 81.676 105.275 114.603 148.041 198.679 161.336 199.639 174.184 200.551 0.8 0.064 1.712 0.096 2.528 0.096 9.568 0 15.551-2.192 64.253-23.519 11.807-5.168 22.207-9.76 26.191-11.231 50.174-18.271 52.75-26.127 56.317-37.022 3.968-12.127 3.68-16.319-10.56-43.086 18.959-18.655 46.91-47.166 59.757-65.341 18.751-26.511 32.35-48.59 22.911-71.197-3.088-7.488-3.088-7.488-52.366-58.957-36.83-38.446-87.26-91.132-111.195-119.098-27.199-31.839-53.661-64.253-72.477-87.996 29.119-7.52 63.965-16.159 76.412-18.719 36.366-7.36 58.957-26.639 58.957-50.286 0-24.287-17.983-32.638-53.805-48.51 33.918-54.205 31.679-62.077 28.271-73.965-6.080-21.311-25.471-31.519-41.95-32.19l-1.36-0.032c-2.128 0-4.224 0.192-6.32 0.608l-15.967 3.072c0.608-6.128 0-17.679-9.968-28.799-6.24-6.976-21.519-18.799-39.038-18.799-5.008 0-10.080 0.864-33.182 5.248-6.56-57.645-7.792-61.341-11.967-68.701-7.84-13.679-23.839-22.799-39.918-22.815-0.105-0.001-0.229-0.002-0.354-0.002-14.626 0-27.444 7.739-34.584 19.345-3.3 5.392-5.252 10.095-36.643 101.499l-11.951 34.75c-236.531-265.854-421.6-583.307-535.955-932.769l409.465 779.496c-105.483-133.802-121.658-151.129-144.313-154.457-1.6-0.24-4.16-0.4-5.76-0.416zM941.788 657.611c1.76 4.224-1.408 13.359-19.311 38.67s-74.109 78.396-74.109 78.396 20.719 37.982 20.367 39.038c-0.352 1.056-24.239 11.599-35.838 15.839-11.567 4.208-74.077 33.038-78.988 32.686-4.912-0.352-114.491-139.945-149.593-187.063-35.134-47.118-124.346-133.962-124.346-133.962s-5.6 4.928-8.432 5.632c-2.8 0.704-12.271 0.704-20.703-3.872s-113.435-118.49-118.362-129.386c-4.912-10.879 8.8-27.423 8.8-27.423s-26.351-30.591-88.876-91.772-183.351-157.161-185.431-159.273c-2.112-2.112-0.704-23.199-0.704-25.311 0-5.968 5.6-111.803 7.008-124.106 1.408-12.319 13.695-18.287 23.887-17.231 10.208 1.056 44.27 20.751 48.478 21.807 4.208 1.040 10.56-6 28.799-20.063 18.239-14.079 99.035-66.461 113.435-64.349 14.399 2.112 83.932 93.18 154.185 181.783s122.234 143.449 122.234 143.449 15.791-0.704 17.199-1.056c1.408-0.352 55.485-162.072 59.357-168.424 3.84-6.352 14.047-2.48 16.863 2.448 2.816 4.928 11.231 89.66 11.935 91.068 0.704 1.408 57.245-10.56 62.509-10.56s15.791 7.408 15.439 10.56-19.679 47.838-19.679 47.838l75.516-14.431s8.8 0.352 10.879 7.728c2.128 7.392-44.59 78.076-44.59 78.076s24.239 12.287 26.687 13.695c2.464 1.408 42.142 17.919 42.142 21.439 0 3.52-9.488 12.671-31.967 17.247-22.479 4.576-124.682 30.591-126.074 32.35-1.44 1.76 53.022 70.669 103.243 129.386 41.326 48.286 156.313 164.888 158.041 169.112zM654.153 697.689c67.789 87.196 108.875 136.074 112.379 135.722 3.488-0.352 68.477-28.127 68.125-29.535-0.352-1.408-97.979-137.834-155.577-203.926-57.597-66.109-95.196-108.315-95.196-108.315s-16.479 3.2-28.431 3.2c-11.935 0-18.959-2.832-23.199-2.128-4.192 0.704-30.879 35.166-30.879 37.966 0 3.632 84.988 79.836 152.761 167.032zM580.765 337.626c-35.838-44.638-95.516-30.927-115.899-10.879-20.367 20.047-31.615 52.030-2.816 107.595 12.703 24.479 71.645 42.558 108.523 24.255 36.894-18.271 46.030-76.284 10.208-120.954zM414.293 481.459c27.039 29.535 44.606 50.638 51.998 47.47s38.974-38.67 37.214-39.038c-1.76-0.32-52.702-13.695-72.717-46.75-19.999-33.054-16.511-72.429-18.239-72.429-1.76 0-49.534 22.159-62.173 36.574-3.552 3.968 36.83 44.638 63.885 74.173zM147.025 27.529c-0.352 1.408-5.968 74.189-5.968 74.189s-18.239-5.632-18.239-6.688 10.847-74.189 8.4-78.044c-2.464-3.888-24.239-16.543-24.591-13.727-0.352 2.816-13.695 112.859-11.583 117.786 1.44 3.44 104.635 86.844 160.152 136.426 55.469 49.598 113.067 113.915 115.195 113.227 2.080-0.704 44.958-21.807 45.998-21.807 1.056 0-1.056-21.439 9.84-33.054 10.879-11.599 11.583-13.007 11.583-13.007s-56.189-69.597-103.611-113.211-61.805-53.118-61.805-53.118-1.408 40.094-2.464 40.446c-1.040 0.352-14.719 0-15.087-1.76-0.352-1.76 4.912-46.398 3.168-49.598-1.76-3.152-23.887-21.439-23.887-21.439s-2.112 55.901-3.168 56.253c-1.056 0.352-15.807-2.464-15.103-4.576 0.704-2.112 3.84-62.941 3.168-64.349-0.704-1.408-23.519-24.255-23.519-24.255l-3.872 61.885s-17.567-1.056-17.919-5.28c-0.352-4.224 8.432-65.053 5.6-70.317-2.784-5.248-31.935-27.407-32.286-25.999zM531.231 237.439c-0.704 1.76-4.912 28.479-6.672 28.831s-12.991-5.984-12.991-5.984 8.8-33.054 8.432-34.11c-0.352-1.056-33.006-34.814-33.006-34.814l-8.432 33.758-15.103-4.928s9.12-41.486 7.36-44.638c-1.76-3.2-26.671-36.238-27.727-35.518-1.056 0.688-11.935 48.862-14.047 49.918s-15.455-7.040-15.103-8.080c0.368-1.056 16.159-56.957 14.767-60.477-1.408-3.52-19.679-26.367-20.367-25.311-0.704 1.056-12.991 45.71-15.103 46.078-2.112 0.32-12.991-8.096-12.639-10.911 0.352-2.8 14.399-50.974 14.047-52.030-0.352-1.056-23.519-27.775-23.519-27.775s-9.504 41.486-10.208 42.878c-0.704 1.44-16.159-6.32-16.159-6.32s15.807-53.437 12.639-57.661c-3.168-4.224-23.199-28.831-23.199-26.367 0 2.464-6.656 41.486-7.712 41.838-1.056 0.352-13.343-7.392-13.343-7.392s7.728-42.878 6.32-47.838c-1.408-4.912-34.398-50.974-35.47-50.974-1.056 0-69.181 27.775-105.707 73.117-1.168 1.488 75.868 69.981 140.153 128.346 64.269 58.365 147.513 145.561 147.513 145.561s19.679-7.040 38.286-7.040h23.199s19.647-24.959 19.295-26.719c-0.384-1.712-14.783-17.183-15.487-15.423zM576.541 257.838c-4.912 2.112-26.687 21.791-28.095 25.311-0.544 1.344 42.494 10.879 59.709 38.318 17.215 27.423 21.759 46.078 24.591 46.078 2.816 0 29.151-4.96 27.743-9.856-1.392-4.928-14.719-24.959-41.070-60.125-26.351-35.166-37.95-41.838-42.878-39.726zM669.257 178.002c-3.872 0.72-17.919-1.76-18.287-10.528-0.352-8.8-1.408-61.885-4.912-62.237-3.52-0.352-48.478 131.146-49.87 135.034-1.184 3.232 60.061 73.469 61.469 73.821 1.408 0.32 65.677-146.985 62.157-146.985-3.52 0-46.718 10.192-50.558 10.879zM794.627 305.644c-2.112-0.688-46.014-17.567-49.518-19.679-3.52-2.112-3.52-12.319 1.44-18.287 4.896-5.984 37.214-55.549 35.102-55.549-2.112 0-61.437 12.319-63.565 14.767-2.080 2.464-45.998 110.395-45.278 112.859 0.48 1.84 123.962-33.39 121.85-34.078zM740.869 488.515c0.368-1.44-17.551-20.415-17.551-20.415s-16.879 53.437-18.975 54.141c-2.112 0.704-13.695-9.12-13.343-10.192 0.352-1.040 20.367-55.885 18.959-58.349-1.408-2.464-24.591-29.535-24.591-29.535s-14.047 41.118-15.103 41.838c-1.056 0.704-14.047-10.56-14.047-11.599 0-1.056 17.215-45.71 16.863-46.766-0.352-1.056-10.879-23.199-14.399-23.551-3.52-0.352-18.607-0.352-20.719 2.816-2.112 3.168 6.32 30.239-8.8 55.197-15.087 24.959-25.599 32.35-25.599 32.35 3.152 3.168 75.148 84.732 135.194 158.921 60.061 74.189 92.716 116.379 94.124 116.379s39.678-33.406 56.541-56.605c16.863-23.199 19.311-28.847 18.239-30.959s-58.285-62.237-58.637-61.181c-0.352 1.072-11.583 55.917-13.695 56.637-2.080 0.688-13.679-4.24-13.327-6 0.352-1.76 14.047-60.829 12.639-64.349-1.408-3.52-36.878-34.814-36.878-34.814s-11.583 44.318-12.991 45.358c-1.408 1.056-14.751-7.728-14.751-7.728s15.455-51.006 14.047-53.805c-1.408-2.816-28.447-33.758-28.447-33.758s-16.863 54.141-18.271 54.493c-1.408 0.352-15.455-8.080-14.751-9.12 0.736-1.056 17.919-58.013 18.287-59.421zM547.758 448.021c-9.12 1.76-20.367-8.080-20.367-8.080s-28.799 12.319-42.478 2.464c-13.695-9.824-2.944-36.446-5.28-37.278-8.064-2.8-12.959-15.807-7.712-29.519 5.28-13.711 23.887-12.639 24.239-13.711 0.352-1.056 0.352-17.231 12.991-23.903 12.639-6.688 33.006-2.112 49.166 11.599 16.159 13.695 8.432 34.078 8.432 34.078l5.968 4.24s6.32 17.919 5.968 34.814c-0.352 16.863-21.759 23.551-30.911 25.311zM563.918 414.263c-3.168-11.247-6.32-16.159-6.32-16.159s-4.576-9.856-4.576-12.319c0-2.464 5.6-14.399-3.52-22.159-9.12-7.728-22.815-17.231-28.799-12.319-5.952 4.96-6.304 22.527-8.064 22.527s-19.999-0.704-22.479 3.52c-2.464 4.224-7.36 13.359 1.408 16.159 3.36 1.088 12.639 5.28 11.231 8.096-1.408 2.832-13.343 18.655-5.28 26.399 8.096 7.712 30.239-4.96 31.279-3.888s13.695 10.192 20.367 9.12c6.656-1.024 17.887-7.712 14.719-18.959z"  horiz-adv-x="1024" />

    
    <glyph glyph-name="meiguitu" unicode="&#58902;" d="M321.09 271.495L142.415 159.771c38.108-61.862 91.321-113.424 154.504-149.541l98.465 202.208c-29.356 6.15-59.341 28.668-74.294 59.057zM402.147 406.068l-111.432 14.521c5.05 33.267 17.434 64.125 35.451 90.876l92.349-63.96c-0.001 0-10.999-13.808-16.368-41.437zM337.479 386.762c0 3.795 0.135 7.558 0.374 11.293l-226.402 14.708a407.136 407.136 0 0 1-0.831-26c0-60.056 13.205-117.027 36.863-168.174l206.016 95.129c-10.276 22.216-16.02 46.958-16.02 73.044zM685.581 397.168l226.466 13.552c-3.75 63.651-22.338 123.311-52.364 175.567L662.845 473.429c13.042-22.698 21.107-48.614 22.736-76.261zM511.689 560.972c21.336 0 41.773-3.843 60.665-10.862l30.454 77.311c-28.326 10.731-59.032 16.622-91.119 16.622-2.059 0-4.111-0.03-6.158-0.078l1.003-83.075c1.713 0.05 3.43 0.082 5.155 0.082zM602.709 450.674l269.044 177.399c-38.727 57.672-90.943 105.525-152.13 139.046L564.678 484.564a111.748 111.748 0 0 0 38.031-33.89zM622.452 376.786a110.514 110.514 0 0 0-13.266-43.56l254.118-139.538c26.057 47.353 42.833 100.533 47.862 157.093l-288.714 26.005zM605.602 327.173a111.774 111.774 0 0 0-38.137-36.642l73.225-126.409c34.729 20.166 64.297 48.226 86.268 81.721l-121.356 81.33zM516.065 275.643v-112.345c30.034 0.577 58.613 7.079 84.626 18.384l-42.86 103.866c-12.804-5.847-26.911-9.33-41.766-9.905zM463.288 286.608l-68.126-129.279c29.836-15.184 63.029-24.711 98.171-27.189l12.893 145.544c-15.333 0.742-29.85 4.588-42.938 10.924z"  horiz-adv-x="1024" />

    
    <glyph glyph-name="hongqi1" unicode="&#58904;" d="M297.2 699.7v-459.9s92.2 111.5 234.4 52.5c55.1-32.1 107.6-75.6 192.2-75.6 84.5 0 143.5 52.5 143.5 52.5v442s-125.5-129.4-285-19.2c-41.6 30.8-112.1 58.9-171 43.6-59-15.4-114.1-35.9-114.1-35.9M195.6 26.8c-21.1 0-38.2 17.1-38.2 38.2V704.7c0 21.1 17.1 38.2 38.2 38.2s38.2-17.1 38.2-38.2V65c0-21-17.1-38.2-38.2-38.2m0 0z"  horiz-adv-x="1024" />

    
    <glyph glyph-name="ic_flag_px" unicode="&#59066;" d="M614.4 640L597.333333 725.333333H213.333333v-725.333333h85.333334V298.666667h238.933333l17.066667-85.333334h298.666666V640z"  horiz-adv-x="1024" />

    
    <glyph glyph-name="qiche" unicode="&#59261;" d="M995.61 549.716h-95.586c-4.545 0-8.728-1.352-12.475-3.378l-43.092 129.79c-13.789 73.842-65.749 109.446-129.613 109.446H310.052c-73.309 0-117.803-47.827-129.614-109.375L137.232 545.97c-3.931 2.277-8.392 3.746-13.235 3.746H28.392c-14.689 0-26.614-11.903-26.614-26.635v-23.095c0-14.688 11.925-26.615 26.614-26.615l36.195-6.183c-11.426-22.337-17.95-47.893-17.95-77.627L33.238 236.365c0-4.441 0.325-8.963 0.876-13.516-0.508-2.777-0.876-5.678-0.876-8.641v-184.305c0-26.223 21.285-47.479 47.506-47.479h72.504c26.245 0 47.501 21.256 47.501 47.479v59.242h623.366v-59.24c0-26.225 21.262-47.48 47.507-47.48h72.509c26.221 0 47.5 21.256 47.5 47.48V214.209c0 2.973-0.364 5.865-0.876 8.643 0.528 4.553 0.876 9.074 0.876 13.514l-13.4 153.193c0 29.811-6.547 55.386-18.014 77.796l35.391 6.019c14.71 0 26.613 11.925 26.613 26.613v23.096c0.004 14.731-11.901 26.633-26.611 26.633z m-783.207 27.276l31.644 84.223 0.44 1.974c3.147 17.032 10.179 20.066 20.565 33.217h495.384c10.479-13.513 17.013-16.944 19.904-33.033l32.148-86.381 11.769-46.927c-2.672-34.335-43.923-61.454-78.252-61.454H278.891c-34.357 0-75.61 27.117-78.275 61.454l11.791 46.927h-0.004z m22.178-400.521c-39.736 0-71.929 32.201-71.929 71.936 0 39.736 32.193 71.929 71.929 71.929 39.735 0 71.933-32.192 71.933-71.929-0.002-39.735-32.199-71.936-71.933-71.936z m401.739 53.066h-0.006c0-11.834-9.583-21.395-21.398-21.395H413.124c-11.81 0-21.399 9.561-21.399 21.395v60.121c0 11.811 9.583 21.373 21.399 21.373h201.794c11.816 0 21.405-9.561 21.405-21.373l-0.003-60.121z m153.97-53.066c-39.734 0-71.952 32.201-71.952 71.936 0 39.736 32.22 71.929 71.952 71.929 39.736 0 71.93-32.192 71.93-71.929 0.007-39.735-32.193-71.936-71.93-71.936z"  horiz-adv-x="1024" />

    
    <glyph glyph-name="huaxueyanjiu" unicode="&#58966;" d="M918.4 45.1L614 524.9V782.1h51.8c13.6 0 25 11.4 25 25s-11.4 25-25 25H358.2c-13.6 0-25-11.4-25-25s11.4-25 25-25H410v-257.2L105.6 45.1C86.5 14.8 82.1-13 93.1-33s36.8-31 72.7-31h692.4c35.9 0 61.6 11 72.7 31 11 20 6.6 47.8-12.5 78.1zM273.7 216.7l176.6 278.5 9.9 15.3V782.1H564v-271.5l9.9-15.4 176.6-278.5H273.7z"  horiz-adv-x="1024" />

    
    <glyph glyph-name="shuju1" unicode="&#58905;" d="M580.032 444.593h443.62s1.402 412.12-443.62 443.385M895.764 327.5c0-247.121-200.417-447.478-447.703-447.478C200.802-119.978 0.347 80.379 0.347 327.499 0.347 574.646 200.797 775 448.06 775v-447.5h447.703z m0 0"  horiz-adv-x="1024" />

    
    </font>
</defs>
</svg>
